<?xml version="1.0" encoding="UTF-8"?>
<!DOCTYPE svg PUBLIC "-//W3C//DTD SVG 1.1//EN" "http://www.w3.org/Graphics/SVG/1.1/DTD/svg11.dtd">
<!-- Creator: CorelDRAW X7 -->
<svg xmlns="http://www.w3.org/2000/svg" xml:space="preserve" width="169.634mm" height="82.1868mm" version="1.1" style="shape-rendering:geometricPrecision; text-rendering:geometricPrecision; image-rendering:optimizeQuality; fill-rule:evenodd; clip-rule:evenodd"
viewBox="0 0 18350 8890"
 xmlns:xlink="http://www.w3.org/1999/xlink">
 <defs>
  <style type="text/css">
   <![CDATA[
    .fil0 {fill:#D4145A }
    .fil1 {fill:#009245}
    .fil2 {fill:#FCEE21}
    .fil3 {fill:#63E2FF}
    .fil4 {fill:#FB872B}
    .fil5 {fill:#F24645}
    .fil6 {fill:#2E3192}
    .active {fill:#eb3e3c}
   ]]>
  </style>
 </defs>
 <g id="Слой_x0020_1">
  <metadata id="CorelCorpID_0Corel-Layer"/>
  <path class="fil0 fil" d="M9383 1870c26,112 38,116 38,267 -176,41 -297,57 -343,229 -225,-53 -232,-103 -494,-38 -370,91 -346,224 -346,419 -314,7 -349,127 -478,170 -202,67 -328,-18 -399,250 121,165 458,162 458,572 0,320 -485,38 -534,38 -94,0 -167,116 -306,153 17,195 61,214 202,295 552,315 364,528 686,801 300,255 147,76 533,460 295,293 505,258 525,505 520,43 722,480 1193,47 97,-89 158,-119 265,-194 442,-310 2,151 412,261 -7,321 -161,153 0,458 449,-301 -51,113 460,-192 206,-123 94,-20 233,-29l40 -9c167,-68 -21,-114 297,-114l0 153c253,-67 478,-589 420,-839 265,-141 167,-103 251,-398 133,-464 877,-137 1351,-137 249,0 323,-124 538,-149 280,-32 428,74 569,-118 -79,-296 -319,-97 -730,-81 -276,11 -248,-129 -338,-300l-420 191c0,-204 68,-279 -3,-414 -255,-481 -645,-388 -1180,-388 17,-207 76,-106 76,-343 0,-367 -284,274 -419,-305 112,-26 116,-38 267,-38 -50,-185 -253,-189 -535,-191 -287,-2 -416,-15 -534,-191 178,-15 67,41 153,-76 -43,-161 -191,-204 -191,-267 0,-201 116,-243 -44,-297 -155,-52 -173,50 -361,-64 -192,-116 -57,-55 -266,-79 -437,-49 -158,-56 -779,-56 -131,0 -148,25 -267,38z"/>
  <path class="fil1 fil" d="M12436 1107c-590,0 -788,310 -903,356 -136,54 -575,-46 -853,369 152,40 46,46 196,71 71,12 187,5 262,5 204,304 62,134 137,397 74,262 169,55 169,404 0,0 879,-115 949,310 78,478 145,96 100,391 -14,94 -38,132 -57,215 324,75 810,66 1106,-76 0,465 -20,247 -76,457 136,92 210,145 114,344 185,-43 158,-115 382,-115 246,0 -142,437 602,260 22,-5 89,-22 120,-34 73,-30 65,-27 117,-73 101,67 140,173 293,66 188,-130 -20,-108 128,-291 43,-53 57,-55 137,-95 149,-75 208,-73 308,-188 201,-232 50,-72 295,-163 64,-24 831,-602 1129,-626l0 152c475,0 365,-201 548,-482 185,-286 711,49 711,-166 0,-132 -28,-148 -38,-267l-228 43c84,-190 -125,-400 -283,-487 -567,-314 -588,115 -848,-220 -104,-135 -47,-71 -173,-171 -126,-99 -245,-184 -262,-386 -349,93 193,72 -607,-118 -350,-82 -249,-185 -700,-122 -143,20 -258,-3 -396,28 -276,63 -72,90 -307,-26 -237,-116 -586,-144 -889,-144 -247,0 -346,188 -510,291 -144,91 -186,33 -367,57 -278,37 85,34 -306,34z"/>
  <path class="fil2 fil" d="M2629 2785c-10,452 -194,84 -518,512 -369,488 -404,205 -588,480 99,136 126,78 266,155 98,54 129,121 230,189 153,-112 -32,-115 420,-115 110,208 114,182 114,496 216,18 123,107 496,115 250,6 334,30 534,76l26 -421c189,2 308,49 335,-128 24,-165 -88,-72 -94,-328 304,-73 189,-56 284,97 156,250 352,305 276,501 -198,506 497,-31 509,508 154,-36 167,-82 302,-37 142,46 163,96 248,212 332,449 481,0 556,283l115 0c53,-131 -3,-54 210,-95 552,-109 686,5 744,-210 320,214 212,-77 496,-153 -133,-569 -520,-554 -615,-644l-186 -272c420,-628 625,-147 953,-305 -32,-387 -931,-283 -446,-675 123,-100 126,-19 141,-202 -457,0 -525,1 -872,-120 -330,-115 -628,-33 -1112,-33 -319,0 -349,-191 -725,-191 -163,0 -116,229 -305,229 -335,0 -511,-305 -878,-305 -356,0 -543,373 -916,381z"/>
  <path class="fil3 fil" d="M5835 5914c208,0 175,-22 267,115 -42,154 -115,186 -306,190 -23,-100 -34,-112 -76,-190 -121,45 -55,-83 -76,114 -198,-16 -234,-109 -420,-152 126,262 69,287 38,419 -293,-78 -314,-366 -588,-53 -101,115 -99,84 -99,282 324,87 179,644 309,989 40,107 149,208 149,309 0,374 -732,152 -992,152 -155,0 -205,60 -267,153 161,303 186,42 370,164 259,171 -177,370 126,370 164,0 136,-336 485,-27 104,92 63,104 202,141 46,-174 382,-310 544,-336 340,-55 637,159 975,24l551 -174c298,-58 677,87 677,-391 0,-182 -145,-255 -91,-432 69,-224 193,-136 129,-408 162,-37 241,-135 410,-205 311,-130 109,149 398,-91 66,-55 92,-95 157,-151 118,-101 179,-99 256,-164 101,-86 83,-201 344,-75 -48,-178 -70,-67 -135,-229l-18 -77c-105,-50 -228,-59 -343,-114 -3,-6 -2,-23 -3,-19l-46 -122c-63,-73 -106,-63 -203,-104 -336,-143 -411,-785 -969,-785 -48,0 -133,127 -180,164 -109,86 -348,160 -521,117 -371,-92 -237,141 -640,286 -196,71 -358,100 -414,310z"/>
  <path class="fil4 fil" d="M7056 1679c159,0 308,-92 328,74 11,93 -113,272 -188,333 -232,187 -789,55 -789,242 0,350 526,341 838,382 309,41 338,138 471,90 165,-59 168,-260 370,-167 0,-191 15,-285 312,-375 156,-48 435,-108 565,-45 100,-189 28,-153 306,-153l-82 -265c616,-55 342,-78 1150,-78 202,0 152,97 335,-84 390,-386 329,-149 746,-285 612,-200 -9,-265 1206,-358 128,-10 335,-64 424,-113 127,-69 226,-228 -2,-228l-429 28c-556,159 -517,187 -1113,102 -81,-12 -163,-12 -240,-27 -88,-17 -125,-65 -202,-65 -339,0 152,380 -645,302 -1243,-121 -1543,-974 -2217,-989 -25,309 -134,25 -486,277 -204,145 -354,-8 -519,244 -71,109 -414,1158 -139,1158z"/>
  <path class="fil5 fil" d="M2858 6601c-21,90 -35,113 -38,229 251,6 181,74 267,267 78,174 145,145 191,344l-147 120c-290,-72 -140,-86 -179,-256 -52,-230 -132,-7 -132,-399 -639,149 -475,219 -687,535 426,-100 390,121 115,267 -168,-89 -242,-192 -344,-344l160 -184c-179,-47 -378,-95 -529,-171 -541,-272 -59,-249 -707,-72 -107,29 -181,42 -262,81 -264,130 -122,282 -226,499 -156,-13 -155,-20 -191,-153 -133,98 -27,-28 -93,136 -153,379 55,306 55,704 302,-7 429,-170 716,-65 245,89 100,25 244,8 189,-23 -50,18 147,18 164,0 61,-27 220,-46 159,-20 14,-16 164,45 218,88 189,-113 417,-113 337,0 396,458 572,458 195,0 4,-160 306,0 54,-113 -22,-260 313,-293 560,-56 417,-279 793,-279 427,0 503,236 878,38 -80,-341 -106,13 -154,-724 -20,-304 -87,-497 -419,-497 -40,150 -146,154 -305,190 -8,-103 -18,-103 -38,-190 -213,86 221,-99 -80,66 -56,31 11,44 -97,3 -157,-60 -588,-354 -930,-222z"/>
  <path class="fil6 fil" d="M2973 1488c52,143 31,28 56,105 92,275 -147,167 -209,162 -18,216 -88,145 -152,420 168,-14 93,-38 381,-38 87,0 158,103 283,136 125,33 294,17 414,45 240,56 486,238 677,238 140,0 41,-267 229,-267 361,0 641,422 1442,260 298,-59 126,-370 440,-438 310,-67 533,108 636,-279 -485,113 -343,-20 -497,-113 -275,-166 -521,64 -865,-280 -120,-120 -49,-79 -234,-110 -461,-80 -332,-169 -555,-209 -133,-24 -149,25 -329,25 -117,0 -236,-191 -382,-191 -174,0 -179,90 -348,112 -453,60 -431,-276 -753,274 -59,100 -96,116 -234,148z"/>
  <path class="fil7 fil" d="M13313 3816c112,-27 55,5 115,-77l-115 0 0 77z"/>
  <path class="fil1 fil" d="M5873 6143c39,39 138,-55 44,-20 -1,0 -108,-44 -44,20z"/>
 </g>
</svg>
