<?xml version="1.0" encoding="UTF-8"?>
<!DOCTYPE svg PUBLIC "-//W3C//DTD SVG 1.1//EN" "http://www.w3.org/Graphics/SVG/1.1/DTD/svg11.dtd">
<!-- Creator: CorelDRAW 2018 (64-Bit) -->
<svg xmlns="http://www.w3.org/2000/svg" xml:space="preserve" width="102.5mm" height="42.6094mm" version="1.1" style="shape-rendering:geometricPrecision; text-rendering:geometricPrecision; image-rendering:optimizeQuality; fill-rule:evenodd; clip-rule:evenodd"
viewBox="0 0 10204.05 4241.82"
 xmlns:xlink="http://www.w3.org/1999/xlink">
 <defs>
  <style type="text/css">
   <![CDATA[
    .str0 {stroke:#091722;stroke-width:99.55;stroke-miterlimit:22.9256}
    .str1 {stroke:#091722;stroke-width:7.59;stroke-miterlimit:22.9256}
    .str2 {stroke:white;stroke-width:149.33;stroke-linecap:round;stroke-linejoin:round;stroke-miterlimit:22.9256}
    .fil2 {fill:none}
    .fil0 {fill:#091722}
    .fil1 {fill:#091722;fill-rule:nonzero}
   ]]>
  </style>
 </defs>
 <g id="Слой_x0020_1">
  <metadata id="CorelCorpID_0Corel-Layer"/>
  <g id="_2835241522384">
   <rect class="fil0 str0" x="49.77" y="49.77" width="4142.27" height="4142.27"/>
   <path class="fil1 str1" d="M6379.14 1679.74l-866.25 0 -131.43 197.84 -220.45 0 696.67 -1025.94 175.23 0 700.91 1025.94 -221.86 0 -132.83 -197.84zm-765.92 -149.79l665.58 0 -333.5 -496 -332.08 496zm1622.27 -148.37c-30.14,0 -54.63,2.35 -73.48,7.06 -18.85,4.71 -34.86,12.25 -48.04,22.61 -14.14,12.25 -24.03,26.62 -29.68,43.11 -5.65,16.49 -8.48,38.39 -8.48,65.71l0 357.52 -183.71 0 0 -377.31c0,-59.35 10.13,-106.69 30.38,-142.02 20.26,-35.32 50.17,-62.41 89.74,-81.25 29.21,-15.07 61.47,-25.44 96.8,-31.09 35.32,-5.64 82.19,-8.47 140.61,-8.47l317.96 0 0 144.14 -332.09 0zm888.86 496c-67.83,0 -123.88,-6.59 -168.16,-19.78 -44.28,-13.19 -80.55,-33.45 -108.81,-60.77 -24.5,-23.55 -42.63,-52.06 -54.4,-85.49 -11.78,-33.45 -17.67,-74.2 -17.67,-122.24l0 -671.24 183.71 0 0 319.37 436.65 0 0 138.49 -436.65 0 0 192.18c0,57.47 12.24,98.45 36.74,122.95 16.01,15.07 38.15,25.9 66.41,32.49 28.26,6.6 62.65,9.9 103.17,9.9l303.82 0 0 144.14 -344.81 0z"/>
   <path class="fil1 str1" d="M6485.13 3240.37l0 149.79 -528.51 0c-78.2,0 -147.44,-1.88 -207.73,-5.65 -60.29,-3.76 -113.99,-10.83 -161.09,-21.19 -47.11,-10.36 -88.56,-24.02 -124.36,-40.99 -35.8,-16.95 -68.3,-39.09 -97.5,-66.41 -46.16,-42.4 -81.02,-94.68 -104.58,-156.86 -23.54,-62.18 -35.32,-136.13 -35.32,-221.86 0,-85.72 11.78,-159.68 35.32,-221.86 23.55,-62.18 58.42,-114.46 104.58,-156.85 29.2,-26.38 61.7,-48.28 97.5,-65.71 35.8,-17.43 77.25,-31.33 124.36,-41.69 47.11,-10.36 100.81,-17.42 161.09,-21.19 60.3,-3.76 129.54,-5.65 207.73,-5.65l528.51 0 0 149.79 -512.97 0c-61.23,0 -116.11,1.17 -164.63,3.53 -48.51,2.35 -91.15,6.83 -127.88,13.42 -36.74,6.6 -68.78,16.02 -96.1,28.26 -27.32,12.25 -50.4,28.26 -69.24,48.05 -31.09,32.97 -52.29,73.01 -63.59,120.11 -11.31,47.11 -16.96,97.04 -16.96,149.79 0,52.76 5.65,102.69 16.96,149.79 11.3,47.11 32.5,87.14 63.59,120.12 18.84,19.78 41.92,35.8 69.24,48.04 27.32,12.24 59.35,21.66 96.1,28.26 36.73,6.59 79.37,11.07 127.88,13.42 48.52,2.36 103.39,3.53 164.63,3.53l512.97 0zm576.55 149.79c-150.73,0 -260.49,-31.09 -329.26,-93.27 -30.14,-27.32 -52.99,-59.35 -68.54,-96.09 -15.54,-36.74 -23.31,-80.08 -23.31,-130.01 0,-95.15 30.62,-170.51 91.86,-226.1 69.72,-63.12 179.47,-94.67 329.26,-94.67l230.34 0c149.79,0 259.55,31.56 329.27,94.67 61.23,55.59 91.85,130.95 91.85,226.1 0,49.93 -7.77,93.27 -23.31,130.01 -15.54,36.73 -38.39,68.77 -68.53,96.09 -68.78,62.18 -178.53,93.27 -329.27,93.27l-230.34 0zm12.72 -496c-48.04,0 -89.03,3.52 -122.95,10.59 -33.91,7.07 -60.77,20.02 -80.55,38.86 -16.02,15.07 -27.32,31.8 -33.92,50.16 -6.59,18.37 -9.89,44.04 -9.89,77.01 0,32.97 3.3,58.65 9.89,77.02 6.6,18.37 17.9,35.09 33.92,50.16 19.78,18.84 46.64,31.56 80.55,38.15 33.92,6.6 74.9,9.9 122.95,9.9l204.91 0c48.04,0 89.03,-3.3 122.94,-9.9 33.92,-6.59 60.77,-19.31 80.56,-38.15 16.01,-15.07 27.32,-31.8 33.91,-50.16 6.6,-18.38 9.9,-44.05 9.9,-77.02 0,-32.97 -3.3,-58.65 -9.9,-77.01 -6.59,-18.37 -17.9,-35.09 -33.91,-50.16 -19.79,-18.85 -46.64,-31.8 -80.56,-38.86 -33.91,-7.07 -74.89,-10.59 -122.94,-10.59l-204.91 0zm1698.59 351.86l0 -351.86 -442.32 0c-49.93,0 -89.73,2.59 -119.4,7.77 -29.68,5.19 -54.4,17.67 -74.2,37.45 -15.07,15.07 -25.9,34.15 -32.5,57.23 -6.59,23.08 -9.89,47.34 -9.89,72.77 0,25.44 3.3,49.7 9.89,72.78 6.6,23.08 17.43,42.16 32.5,57.23 19.79,19.78 44.52,32.5 74.2,38.15 29.68,5.65 69.48,8.48 119.4,8.48l442.32 0zm-453.62 144.14c-74.42,0 -137.07,-7.3 -187.95,-21.9 -50.87,-14.6 -94.21,-37.92 -130,-69.95 -31.09,-27.32 -54.4,-60.77 -69.95,-100.33 -15.54,-39.57 -23.31,-82.44 -23.31,-128.6 0,-46.16 7.77,-89.03 23.31,-128.59 15.55,-39.57 38.86,-73.01 69.95,-100.34 35.8,-32.03 79.13,-55.11 130,-69.24 50.88,-14.14 113.53,-21.19 187.95,-21.19l453.62 0 0 -385.79 183.7 0 0 1025.94 -637.32 0zm1880.88 -254.36l-818.2 0c4.71,35.8 18.37,62.18 40.98,79.13 16.96,13.19 40.28,22.14 69.95,26.85 29.68,4.71 70.41,7.07 122.23,7.07l529.93 0 0 141.31 -544.06 0c-61.23,0 -119.41,-4.71 -174.52,-14.14 -55.11,-9.42 -102.45,-29.67 -142.02,-60.76 -28.26,-22.62 -50.87,-52.29 -67.83,-89.03 -16.95,-36.74 -25.44,-82.91 -25.44,-138.49 0,-50.88 7.77,-96.8 23.31,-137.78 15.55,-40.99 38.4,-75.61 68.54,-103.87 35.8,-32.97 80.55,-57.23 134.25,-72.77 53.7,-15.55 120.12,-23.31 199.25,-23.31l159.69 0c74.42,0 139.42,7.77 195.01,23.31 55.58,15.54 101.27,39.8 137.07,72.77 30.14,28.26 52.99,62.89 68.53,103.87 15.55,40.98 23.32,86.9 23.32,137.78l0 48.04zm-586.46 -244.47c-38.63,0 -70.18,1.64 -94.67,4.94 -24.5,3.31 -45.23,8.72 -62.18,16.26 -41.45,18.85 -65.47,51.82 -72.08,98.91l628.85 0c-4.71,-23.54 -12.24,-42.86 -22.61,-57.94 -10.36,-15.07 -24.49,-27.32 -42.39,-36.73 -17.91,-9.43 -40.28,-16.02 -67.13,-19.79 -26.85,-3.76 -59.11,-5.64 -96.8,-5.64l-170.99 0z"/>
   <g>
    <polyline class="fil2 str2" points="2901.99,1932.61 1353.77,2860.15 1353.77,3111.21 851.65,3390.17 830.73,851.65 2908.97,2385.92 "/>
    <polyline class="fil2 str2" points="1339.83,2309.21 2888.06,1381.68 2888.06,1130.62 3390.17,851.65 3411.1,3390.17 1332.85,1855.91 "/>
   </g>
  </g>
 </g>
</svg>
