<?xml version="1.0" encoding="UTF-8" standalone="no"?>
<svg
   xmlns:dc="http://purl.org/dc/elements/1.1/"
   xmlns:cc="http://creativecommons.org/ns#"
   xmlns:rdf="http://www.w3.org/1999/02/22-rdf-syntax-ns#"
   xmlns:svg="http://www.w3.org/2000/svg"
   xmlns="http://www.w3.org/2000/svg"
   viewBox="0 0 1133.8586 1133.8586"
   height="1133.8586"
   width="1133.8586"
   xml:space="preserve"
   id="svg834"
   version="1.1"><metadata
     id="metadata840"><rdf:RDF><cc:Work
         rdf:about=""><dc:format>image/svg+xml</dc:format><dc:type
           rdf:resource="http://purl.org/dc/dcmitype/StillImage" /><dc:title></dc:title></cc:Work></rdf:RDF></metadata><defs
     id="defs838"><clipPath
       id="clipPath850"
       clipPathUnits="userSpaceOnUse"><path
         id="path848"
         d="M 0,850.394 H 850.394 V 0 H 0 Z" /></clipPath></defs><g
     transform="matrix(1.3333333,0,0,-1.3333333,0,1133.8587)"
     id="g842"><g
       style="fill:none;stroke:#ffffff;stroke-width:1.41732287;stroke-miterlimit:4;stroke-dasharray:none"
       transform="matrix(3.3347922,0,0,3.3347922,425.16169,10.942802)"
       id="g852"><path
         id="path854"
         style="fill:none;fill-opacity:1;fill-rule:nonzero;stroke:#ffffff;stroke-width:1.41732287;stroke-miterlimit:4;stroke-dasharray:none"
         d="m 0,0 c -68.545,0 -124.118,55.548 -124.118,124.094 0,68.534 55.573,124.093 124.118,124.093 68.541,0 124.093,-55.559 124.093,-124.093 C 124.093,55.548 68.541,0 0,0" /></g><g
       style="fill:#ffffff;fill-opacity:1"
       transform="matrix(3.3347922,0,0,3.3347922,459.6151,503.14511)"
       id="g856"><path
         id="path858"
         style="fill:#ffffff;fill-opacity:1;fill-rule:nonzero;stroke:none"
         d="M 0,0 C 0.089,-0.008 0.33,-0.019 0.553,-0.031 0.683,-0.043 0.802,-0.043 0.914,-0.049 0.618,-0.043 0.153,-0.019 0,0 m 91.448,-25.441 c 0,0 -0.783,-0.504 -1.224,-0.851 -0.432,-0.329 -1.115,-0.262 -2.331,-0.262 -1.225,0 -0.971,-0.249 -1.923,-0.249 -0.961,-0.018 -0.618,-0.603 -1.481,-0.7 -0.89,-0.077 -1.507,-0.175 -2.036,-0.175 -0.531,0 -0.52,0.664 -0.873,0.664 -0.296,0 -0.457,0.288 -0.505,0.53 -0.024,0.06 -0.024,0.104 -0.024,0.152 0,0.257 0,0.684 0.024,1.185 0,0.513 -0.36,0.85 -0.807,1.179 -0.45,0.346 -0.434,0.689 -1.059,1.361 -0.609,0.682 -1.505,1.529 -2.404,1.708 -0.896,0.169 -0.085,0.497 -1.263,2.032 -1.178,1.547 -0.459,0.61 -0.723,1.709 -0.112,0.455 -0.24,0.634 -0.402,0.752 -0.254,0.193 -0.605,0.23 -1.151,0.801 -0.921,0.953 -0.737,0.609 -0.921,0.953 -0.177,0.346 -0.113,1.377 -0.113,1.627 0,0.266 -1.034,2.242 -1.418,3.198 -0.392,0.958 -1.026,0.456 -0.744,0.703 0.143,0.145 0.014,0.311 -0.185,0.662 -0.162,0.291 -0.367,0.7 -0.513,1.351 -0.303,1.375 -0.977,2.431 -1.851,3.415 -0.855,0.972 -0.576,0.795 -0.601,1.491 -0.013,0.707 -1.56,1.893 -1.57,2.326 -0.021,0.438 -0.52,1.251 -0.32,0.991 0.2,-0.279 0.794,-1.354 1.09,-1.802 0.297,-0.448 0.105,-0.352 1.346,-1.336 1.232,-0.995 0.361,0.24 0.415,1.207 0.026,0.298 -0.054,0.77 -0.15,1.277 C 67.48,1.609 67.008,2.995 66.809,3.002 66.537,3.002 66.343,3.1 65.592,3.12 64.855,3.132 65.03,3.306 64.277,3.338 63.533,3.355 63.692,3.891 62.475,3.925 61.239,3.947 61.187,3.164 60.258,2.838 59.32,2.495 57.629,3.974 57.148,4.087 56.651,4.185 55.217,4.15 54.825,4.163 54.552,4.175 54.313,4.405 53.992,4.542 53.854,4.598 53.719,4.653 53.544,4.662 52.967,4.671 51.662,5.35 51.662,5.35 c 0,0 -0.505,0.279 -1.122,0.945 C 49.915,6.943 49.057,6.422 48.464,6.452 47.865,6.488 47.607,5.673 47.134,5.326 46.655,4.983 47.199,3.884 47.215,3.244 47.247,2.621 46.831,3.076 46.334,2.733 45.87,2.386 44.652,2.708 44.026,3.169 43.401,3.646 43.819,3.541 43.275,4.013 42.763,4.486 41.343,4.261 40.936,4.287 40.519,4.3 40.327,4.3 40.19,5.223 c -0.159,0.922 -0.873,1.114 -0.873,1.114 0,0 -1.659,0.269 -2.379,0.293 -0.73,0.025 -1.362,0.243 -1.891,0.256 -0.273,0.017 -0.512,0.298 -0.769,0.547 -0.201,0.223 -0.439,0.415 -0.721,0.437 -0.632,0.021 -0.865,0.597 -0.865,0.597 0,0 -0.449,0.473 -0.359,1.033 0.071,0.55 0.584,0.805 0.872,1.257 0.287,0.451 -0.28,1.21 -0.497,1.519 -0.224,0.283 0.665,1.175 0.665,1.175 0,0 -0.913,-0.521 -0.935,-0.059 -0.034,0.458 -1.291,0.72 -1.291,0.72 -0.465,-0.069 -0.906,-0.136 -1.372,-0.213 0,0 -1.041,-0.049 -1.36,-0.028 -0.329,0.018 -1.386,-0.031 -1.386,-0.031 -0.616,0.031 -1.211,0.063 -1.836,0.098 0,0 -0.943,-0.137 -2.993,-0.315 -2.077,-0.172 -2.18,-0.07 -2.517,-0.052 -0.321,0.013 -1.088,-0.137 -1.088,-0.137 0,0 -1.324,-0.13 -1.755,-0.395 -0.434,-0.246 -0.537,-0.529 -0.978,-0.511 -0.458,0.024 -0.896,-0.06 -1.784,-0.368 -0.883,-0.347 0,0 -0.307,-0.368 -0.247,-0.272 -0.369,-0.395 -0.634,-0.384 -0.102,-0.011 -0.223,0.017 -0.374,0.031 -0.577,0.133 -0.577,0.231 -0.923,0.353 -0.335,0.102 -0.679,0.021 -1.154,0.039 -0.438,0.042 -1.007,0.063 -1.481,0.087 -0.448,0.025 -1.154,0.441 -1.154,0.441 0,0 -0.481,0.68 -1.297,0.827 -0.817,0.143 -0.68,-0.337 -0.68,-0.337 0,0 -0.105,-0.475 -0.201,-0.857 C 5.768,11.614 5.312,11.159 5.32,10.683 5.344,10.2 4.399,10.246 4.183,9.861 3.951,9.507 3.374,9.518 2.651,9.273 1.955,9.028 1.361,9.147 0.907,8.496 0.442,7.842 -0.152,7.387 -0.263,6.912 -0.36,6.422 -0.841,6.263 -0.841,5.676 -0.824,5.103 -0.577,4.43 -0.577,4.43 -0.617,4.163 -0.646,3.908 -0.678,3.659 c 0,0 -0.964,-0.632 -0.954,-1.305 0.007,-0.679 -1.813,-0.51 -1.813,-0.51 0,0 -1.336,-0.533 -1.69,-0.913 -0.376,-0.372 -1.368,-0.533 -1.721,-0.61 h -0.023 c -0.336,-0.112 0.248,-1.266 -1.722,-2.075 -1.979,-0.801 -1.979,-2.38 -2.237,-2.769 -0.255,-0.37 -0.375,-0.573 -0.881,-1.045 -0.52,-0.466 -0.752,-1.442 -0.752,-1.442 0,0 -1.28,-1.144 -1.794,-1.921 -0.505,-0.777 -0.378,-0.385 -0.505,-1.069 -0.128,-0.705 0.256,-0.705 0.521,-1.195 0.239,-0.494 0.119,-0.396 0.768,-0.599 0.634,-0.199 0,-1.281 0,-2.155 0,-0.879 0.112,-0.487 0.112,-1.376 0,-0.881 -0.249,-1.176 -0.249,-2.242 v -0.752 c -0.016,-0.355 -0.087,-0.424 -0.255,-0.619 -0.257,-0.306 -1.162,-1.667 -1.162,-1.667 0,0 -0.255,-0.592 -0.255,-1.079 v -1.178 c 0,-0.602 0,0 -0.267,-0.907 -0.247,-0.878 0,0 -0.118,-0.687 -0.129,-0.681 0.905,-1.17 0.905,-1.17 l 0.064,-0.064 c 0.063,-0.081 0.2,-0.224 0.457,-0.521 0.512,-0.579 1.65,-0.273 1.65,-0.273 -0.282,-0.585 0.432,-0.944 0.808,-1.092 0.128,-0.052 0.225,-0.07 0.225,-0.07 0,0 0.498,-0.784 1.01,-1.07 0.503,-0.274 0.377,-0.477 1.127,-0.95 0.459,-0.303 0.779,-0.808 0.965,-1.158 0.101,-0.218 0.174,-0.382 0.174,-0.382 0,0 0,-0.878 -0.016,-1.161 0,-0.291 0.881,-0.766 1.249,-1.047 0.37,-0.279 0.625,-0.367 1.474,-0.745 0.218,-0.077 0.376,-0.175 0.499,-0.266 0.39,-0.294 0.488,-0.575 0.854,-0.86 0.489,-0.379 2.692,-1.764 2.677,-1.764 0,0 1.337,-0.627 2.283,-1.267 0.968,-0.647 1.314,-0.256 1.314,-0.256 0.105,0.025 0.207,0.043 0.311,0.056 0.339,0.057 0.683,0.112 1.019,0.169 0,0 1.203,0.619 1.545,0.634 0.353,0 0.849,0.495 2.124,0.521 1.306,0.049 1.642,0.049 2.687,0.076 1.054,0.028 0.477,-0.263 1.157,-0.536 0.401,-0.149 0.801,-0.11 1.074,-0.049 0.185,0.042 0.303,0.088 0.303,0.088 0.377,0.14 0.771,0.266 1.147,0.412 0,0 0.913,0.207 1.266,0.401 0.35,0.191 1.04,0.602 1.603,0.608 0.56,0.007 0.688,0.489 1.368,0.504 0.681,0.007 0.681,0.57 0.681,0.57 0,0 0.153,0.018 0.385,0.07 0.449,0.063 1.184,0.175 1.625,0.258 0.034,0 0.063,0.008 0.09,0.008 0.647,0.088 1.392,0.032 2.25,0.038 0.872,0.025 0.752,-0.356 1.947,-1.056 1.185,-0.713 0.2,-0.738 0.065,-1.571 -0.13,-0.824 0.318,-0.728 1.073,-0.704 0.766,0.025 1.531,0.416 2.185,0.423 0.642,0.025 2.156,0.61 2.156,0.61 0,-0.007 0.017,-0.014 0.017,-0.02 0.224,-0.299 0.461,-0.59 0.704,-0.869 0,0 0.521,-0.35 1.222,-1.435 0.515,-0.766 0.267,-1.231 0,-1.632 -0.091,-0.16 -0.204,-0.314 -0.269,-0.481 -0.153,-0.379 -0.36,-0.956 -0.489,-1.46 -0.064,-0.238 -0.104,-0.487 -0.113,-0.672 -0.024,-0.553 -0.783,-1.04 -1.048,-2.429 -0.216,-1.174 1.52,-3.169 3.085,-4.562 0.32,-0.267 0.607,-0.515 0.88,-0.739 0.407,-0.287 0.665,-0.655 0.871,-1.043 0.242,-0.462 0.353,-0.976 0.434,-1.494 0.13,-0.875 0.144,-1.772 0.383,-2.47 0.549,-1.464 1.556,-1.601 0.938,-1.624 -0.615,-0.049 -0.343,-2.276 0.257,-2.614 0.578,-0.344 0.625,-2.585 -0.711,-4.377 -1.164,-1.51 -2.492,-5.051 -3.078,-7.269 -0.104,-0.369 -0.167,-0.68 -0.225,-0.945 -0.336,-1.939 3.175,-8.203 3.15,-8.216 0,0 0.618,-4.135 0.424,-5.979 -0.145,-1.522 1.209,-3.257 1.721,-4.139 0.098,-0.186 0.186,-0.34 0.202,-0.431 0.127,-0.604 -0.032,-2.257 1.145,-4.086 1.178,-1.821 -0.769,-3.368 0.344,-5.673 1.105,-2.3 2.203,-1.404 3.91,-0.257 1.707,1.145 2.555,0.102 3.34,0.127 0.784,0.04 2.66,1.182 3.846,1.228 1.167,0.046 1.008,1.971 3.444,2.912 2.405,0.951 2.868,1.619 3.468,3.751 0.626,2.121 2.035,2.81 3.485,3.91 1.249,0.95 1.305,1.391 0.905,2.697 -0.063,0.195 -0.121,0.391 -0.2,0.616 -0.577,1.821 3.316,2.993 3.307,2.993 0.666,0.03 1.236,0.982 1.596,2.99 0.369,2.014 0.286,3.287 -0.738,4.424 -1.034,1.121 0.505,1.491 1.194,1.908 0.673,0.409 1.297,0.919 1.889,1.528 0.602,0.61 0.858,1.298 1.252,1.691 0.409,0.403 2.009,0.938 2.506,1.348 0.489,0.397 1.449,1.008 2.165,1.976 0.703,0.984 0.801,1.074 0.599,2.101 -0.216,1.025 0.072,1.04 0.202,3.099 0.126,2.034 0.325,2.406 0.325,2.406 0,0 -0.159,0.443 -0.335,1.038 -0.241,0.745 -0.529,1.701 -0.641,2.412 -0.201,1.248 0.088,1.808 -0.231,2.354 -0.347,0.522 -0.505,1.058 -0.521,2.299 -0.025,1.233 0.801,0.529 0.88,1.4 0,0.025 0.017,0.042 0.017,0.067 0.039,0.986 0.153,1.344 0.712,1.704 0.562,0.379 -0.127,1.604 0.609,1.796 0.618,0.16 1.305,1.098 1.53,1.434 0.049,0.055 0.065,0.105 0.065,0.105 0.006,0 1.025,0.895 1.208,1.162 0.193,0.262 1.402,1.69 1.683,2.215 0.281,0.532 1.65,1.421 1.915,1.676 0.264,0.266 1.162,0.371 1.339,0.721 0.182,0.353 1.455,1.908 1.914,2.188 0.441,0.265 1.329,1.466 1.705,2.236 0.352,0.769 0.545,1.623 1.618,3.418 1.057,1.789 1.275,5.414 1.875,6.177 0.602,0.753 -0.338,0.41 -0.338,0.41" /></g><g
       style="fill:#ffffff;fill-opacity:1"
       transform="matrix(3.3347922,0,0,3.3347922,129.89419,651.64441)"
       id="g860"><path
         id="path862"
         style="fill:#ffffff;fill-opacity:1;fill-rule:nonzero;stroke:none"
         d="m 0,0 c 0,0 0.666,0.266 1.066,0.535 0.408,0.266 1.37,1.931 1.601,2.131 0.232,0.2 -2.714,-0.154 -2.714,-0.154 -0.37,-0.493 -1.339,-1.928 -1.642,-2.257 -0.29,-0.35 -0.178,-1.778 -0.506,-1.914 -0.328,-0.126 -0.993,-1.617 -1.458,-2.012 -0.441,-0.399 -1.001,-1.505 -1.001,-1.505 0.183,-0.287 0.376,-0.592 0.56,-0.882 0.346,0.122 0.696,0.266 1.059,0.403 0.255,0.426 0.528,0.846 0.785,1.287 0.448,0.161 0.889,0.333 1.33,0.497 -0.08,0.353 -0.153,0.707 -0.224,1.039 0.032,0.438 0.071,0.861 0.103,1.285 C -0.696,-1.033 -0.343,-0.529 0,0" /></g><g
       style="fill:#ffffff;fill-opacity:1"
       transform="matrix(3.3347922,0,0,3.3347922,192.88208,646.79862)"
       id="g864"><path
         id="path866"
         style="fill:#ffffff;fill-opacity:1;fill-rule:nonzero;stroke:none"
         d="m 0,0 c 0.457,0.179 1.69,-0.262 1.963,-0.784 0.289,-0.521 0.417,-0.678 1.026,0.228 0.633,0.91 0.087,1.215 1.625,1.977 1.531,0.777 2.1,1.561 0.314,1.648 C 3.141,3.188 3.398,3.416 2.123,3.528 0.841,3.64 -0.152,2.653 -0.344,3.251 c -0.2,0.564 1.988,1.397 1.988,1.397 0,0 1.522,1.435 0.319,1.025 C 0.754,5.281 -1.506,5.099 -0.432,5.554 0.65,6.019 -1.28,6.09 -1.28,6.09 c -0.144,0.273 -0.281,0.57 -0.441,0.849 0,0 -1.689,-0.149 -1.363,0.218 0.321,0.36 -1.449,0.073 -1.115,0.336 0.346,0.256 0.602,1.05 0.33,0.945 C -4.132,8.319 -5.901,8.63 -7.032,8.029 -8.169,7.437 -7.313,6.293 -6.879,6.467 c 0.448,0.2 1.161,-0.098 1.161,-0.098 0,0 -0.947,-0.5 -1.226,-0.612 -0.247,-0.126 -2.06,-1.099 -2.06,-1.092 0.202,0.312 0.394,0.616 0.587,0.935 0.201,0.346 0.384,0.693 0.575,1.043 -0.038,0.266 -0.087,0.497 -0.119,0.763 -0.57,-0.274 -1.122,-0.54 -1.659,-0.812 -0.456,-0.231 -0.929,-0.455 -1.385,-0.679 -0.296,-0.284 -0.578,-0.546 -0.867,-0.827 0.186,0.505 0.377,1.002 0.571,1.506 -0.329,-0.442 -0.658,-0.889 -0.979,-1.327 -0.312,-0.378 0.265,-3.454 -0.087,-3.573 -0.353,-0.154 -1.195,0.977 -1.195,0.977 0,0 0.571,0.913 0.683,1.312 0.111,0.385 -1.09,0.938 -1.09,0.938 -0.618,-0.753 -1.196,-1.491 -1.796,-2.226 -0.352,-0.417 -0.696,-0.819 -1.039,-1.217 0.054,-0.428 0.101,-0.875 0.152,-1.299 0.52,0.175 1.032,0.342 1.552,0.504 -0.52,-0.385 -1.001,-0.777 -1.498,-1.162 0.065,-0.231 0.145,-0.455 0.209,-0.686 0.433,0.167 0.85,0.326 1.275,0.5 0,0 1.928,0.333 3.381,0.925 1.448,0.594 2.833,1.161 2.833,1.161 0.219,0.354 0.433,0.704 0.657,1.064 -0.016,-0.011 1.948,0.018 2.277,-0.738 0.311,-0.749 1.602,-0.637 1.737,-1.351 0.12,-0.728 -0.322,-1.449 -1.072,-1.89 -0.77,-0.427 -1.098,-2.187 -1.098,-2.162 0,0 0.024,-0.641 -0.585,-0.893 -0.601,-0.255 -1.803,-0.22 -2.197,-0.574 -0.376,-0.378 -1.177,-1.011 -1.177,-1.011 0,-0.017 -1.289,-2.212 -0.36,-1.841 0.922,0.375 0.611,0.56 1.201,0.802 0.578,0.237 2.933,1.938 3.414,0.349 0.479,-1.578 1.698,-1.168 2.234,-1.049 0.529,0.111 2.164,-0.133 2.116,0.154 -0.056,0.286 1.296,0.64 -0.082,1.41 -1.351,0.802 -0.737,1.578 0.026,0.952 0.775,-0.609 1.664,-0.865 2.036,0.322 0.351,1.21 1.528,1.609 0.23,2.435 -1.29,0.833 -1.379,1.348 -1.379,1.33 0,0 0.482,1.071 0.922,1.27" /></g><g
       style="fill:#ffffff;fill-opacity:1"
       transform="matrix(3.3347922,0,0,3.3347922,212.01477,578.54276)"
       id="g868"><path
         id="path870"
         style="fill:#ffffff;fill-opacity:1;fill-rule:nonzero;stroke:none"
         d="m 0,0 c -1.506,-0.7 -1.501,-0.693 -1.501,-0.693 0.035,-0.041 0.083,-0.088 0.123,-0.144 0,0 -1.106,-1.098 -1.467,-2.081 -0.351,-0.98 -0.752,-1.691 -1.337,-2.101 -0.56,-0.409 -0.905,-2.634 -0.905,-2.627 0.017,0 0,-0.007 2.083,0.801 2.082,0.826 2.971,1.704 2.971,1.704 0.121,-0.206 0.24,-0.441 0.351,-0.672 0.329,-0.055 0.675,-0.087 1.01,-0.143 0,0 0.634,0.241 0.947,0.634 0.304,0.399 0.271,0.951 0.271,0.951 -0.096,0.105 -0.192,0.224 -0.271,0.343 -0.072,0.315 -0.154,0.627 -0.224,0.938 -0.033,0.315 -0.072,0.658 -0.129,0.98 0,0 -1.108,0.105 -1.666,-0.392 -0.578,-0.514 -0.921,-0.284 -0.921,-0.284 0.152,0.312 0.326,0.619 0.479,0.924 0,0 -1.009,-0.087 -1.37,-0.315 C -1.042,-1.711 1.29,0.608 0,0" /></g><g
       style="fill:#ffffff;fill-opacity:1"
       transform="matrix(3.3347922,0,0,3.3347922,123.07953,676.78073)"
       id="g872"><path
         id="path874"
         style="fill:#ffffff;fill-opacity:1;fill-rule:nonzero;stroke:none"
         d="M 0,0 C 0.394,0.2 0.787,0.409 1.178,0.584 1.3,0.431 1.419,0.297 1.531,0.144 1.842,0.206 2.131,0.297 2.42,0.356 2.364,0.801 2.315,1.225 2.268,1.651 1.948,1.729 1.611,1.785 1.3,1.872 0.987,1.746 0.665,1.621 0.347,1.484 -0.176,1.154 -0.704,0.833 -1.216,0.504 c 0.342,0 0.656,0.01 1.009,0.038 C -0.135,0.35 -0.079,0.185 0,0" /></g><g
       style="fill:#ffffff;fill-opacity:1"
       transform="matrix(3.3347922,0,0,3.3347922,121.16137,660.1508)"
       id="g876"><path
         id="path878"
         style="fill:#ffffff;fill-opacity:1;fill-rule:nonzero;stroke:none"
         d="M 0,0 C 0.521,0.203 1.168,0.108 1.257,0.612 1.345,1.124 1.401,1.736 1.401,1.736 1.458,2.064 1.506,2.404 1.562,2.743 1.087,2.681 0.615,2.6 0.134,2.544 0.167,2.267 0.185,1.998 0.214,1.743 c 0,0 -0.198,-1.379 -0.358,-0.977 -0.171,0.4 -0.425,1.599 -0.635,1.298 -0.199,-0.321 -0.863,-1.532 -0.863,-1.532 0.167,-0.329 0.321,-0.658 0.472,-0.984 0,0 0.689,0.264 1.17,0.452" /></g><g
       style="fill:#ffffff;fill-opacity:1"
       transform="matrix(3.3347922,0,0,3.3347922,104.9206,640.98875)"
       id="g880"><path
         id="path882"
         style="fill:#ffffff;fill-opacity:1;fill-rule:nonzero;stroke:none"
         d="m 0,0 c 0.392,-0.087 0.749,-0.179 1.138,-0.273 0,0 -0.264,-1.218 0.72,-0.851 0.976,0.379 0.83,1.002 0.83,1.002 0,0 1.204,0.664 1.597,0.93 0.401,0.266 -0.183,1.746 -0.194,1.746 0.258,0.105 0.505,0.2 0.755,0.298 0,0 0.776,1.449 0.512,1.921 C 5.069,5.253 4.188,3.853 3.772,3.699 3.354,3.542 2.523,3.22 2.523,3.22 2.306,2.947 2.096,2.667 1.888,2.401 1.858,1.966 1.833,1.536 1.809,1.113 L 0.975,1.256 C 0.137,1.399 0,0 0,0" /></g><g
       style="fill:#ffffff;fill-opacity:1"
       transform="matrix(3.3347922,0,0,3.3347922,383.34973,795.04548)"
       id="g884"><path
         id="path886"
         style="fill:#ffffff;fill-opacity:1;fill-rule:nonzero;stroke:none"
         d="m 0,0 c -1.939,-0.57 -3.476,-1.274 -3.941,-1.491 -0.456,-0.225 -2.371,-0.913 -2.579,-0.994 -0.209,-0.071 1.01,0.794 0,1.007 -0.08,0.011 -0.168,0.042 -0.249,0.067 0,0.007 0.016,0.007 0.016,0.007 0,0 -0.488,0.571 -0.6,0.609 -0.119,0.031 -0.73,0.031 -0.73,0.031 -0.241,0.137 -0.495,0.26 -0.736,0.403 0.007,0 -0.968,-0.465 -1.145,-0.49 -0.192,-0.007 -0.793,-0.056 -1.011,-0.049 -0.23,0 -1.104,0.049 -1.104,0.049 -0.289,-0.224 -0.592,-0.438 -0.864,-0.654 -0.082,0.101 -0.154,0.216 -0.21,0.335 -0.241,-0.104 -0.465,-0.185 -0.69,-0.272 -0.35,-0.063 -0.711,-0.137 -1.063,-0.2 -0.21,-0.123 -0.426,-0.259 -0.634,-0.378 0,0.025 -0.007,0.042 -0.017,0.074 -0.207,-0.049 -0.399,-0.113 -0.601,-0.164 -0.279,-0.152 -0.559,-0.302 -0.848,-0.463 -0.329,-0.143 -0.672,-0.294 -0.993,-0.433 -0.089,0.08 -0.176,0.139 -0.256,0.206 -0.305,-0.056 -0.625,-0.101 -0.92,-0.165 -0.314,-0.231 -0.636,-0.472 -0.939,-0.696 -0.199,-0.143 -0.376,-0.29 -0.561,-0.416 -0.126,0.045 -0.256,0.094 -0.408,0.15 -0.394,-0.144 -0.808,-0.294 -1.209,-0.451 -0.121,-0.19 -0.241,-0.389 -0.369,-0.599 -0.081,0.06 -0.177,0.105 -0.271,0.154 -0.33,-0.094 -0.667,-0.21 -0.985,-0.311 -0.163,-0.21 -0.34,-0.409 -0.506,-0.627 -0.258,-0.241 -0.505,-0.496 -0.746,-0.745 -0.176,0 -0.344,0 -0.528,0.025 -0.352,-0.179 -0.712,-0.33 -1.074,-0.491 -0.144,-0.014 -0.263,-0.031 -0.401,-0.031 -0.255,-0.353 -0.519,-0.711 -0.777,-1.071 -0.15,-0.052 -0.287,-0.091 -0.432,-0.126 -0.184,-0.157 -0.376,-0.307 -0.56,-0.469 -0.232,-0.081 -0.472,-0.161 -0.713,-0.231 -0.064,0.056 -0.146,0.112 -0.209,0.161 -0.24,-0.238 -0.489,-0.466 -0.745,-0.707 -0.359,-0.234 -0.738,-0.465 -1.096,-0.697 -0.216,-0.388 -0.441,-0.783 -0.667,-1.178 -0.358,-0.2 -0.712,-0.406 -1.096,-0.606 0,0 0.857,0.774 -1.154,-0.034 -2.018,-0.816 -3.333,-1.362 -3.901,-1.58 -0.546,-0.23 -2.123,-1.504 -2.242,-1.791 -0.104,-0.321 -1.53,-0.987 -1.53,-0.987 -0.016,0 -5.624,-3.747 -4.431,-3.516 1.186,0.241 1.762,-0.466 0.202,-1.121 -1.539,-0.657 -2.875,-2.34 -4.872,-3.188 -1.995,-0.854 -3.067,-2.596 -1.296,-1.826 1.786,0.749 3.931,1.487 3.946,1.487 -0.022,0 -4.748,-3.289 -2.691,-2.904 2.045,0.36 1.689,-0.035 3.213,0.623 1.54,0.654 1.787,2.009 3.598,1.858 1.809,-0.143 2.13,0.16 2.346,-0.9 0.215,-1.064 1.139,-1.879 0.562,-2.929 -0.562,-1.049 -1.827,-1.774 -1.827,-1.774 0,0 -0.186,-1.182 1.073,-0.469 1.266,0.697 2.019,2.051 2.169,1.571 0.138,-0.507 1.179,-1.564 1.179,-1.564 0,0 -1.402,0.105 -2.153,-0.231 -0.746,-0.304 -1.643,-1.088 -0.77,-1.186 0.888,-0.094 2.355,0.305 2.564,0.399 0.198,0.091 -0.185,-1.176 -0.715,-1.49 -0.559,-0.32 -2.322,-1.866 -2.322,-1.866 0,0 -1.603,-1.778 -1.17,-3.509 0.417,-1.723 0.696,-2.048 0.929,-2.986 0.241,-0.962 0.089,-2.947 0.785,-3.23 0.712,-0.28 0.817,-0.889 1.908,-0.703 1.066,0.168 1.755,0.535 1.946,0.622 0.223,0.091 0.449,-0.318 0.874,-0.573 0.424,-0.252 0.831,-0.067 2.034,0.454 0.32,0.435 0.648,0.858 0.968,1.299 0.393,0.738 0.993,2.393 0.993,2.393 0,0 0.625,1.085 0.394,1.572 -0.249,0.479 -0.018,-0.375 1.242,1.144 1.264,1.501 1.521,1.771 1.401,2.446 -0.137,0.704 -0.505,1.001 -0.217,1.12 0.282,0.129 0.632,1.103 1.796,1.603 1.152,0.504 0.713,-0.522 2.939,1.424 2.235,1.942 2.219,2.005 3.274,3.132 1.045,1.13 0.019,1.081 1.524,2.012 1.482,0.938 1.361,0.739 2.915,1.764 1.565,1.029 2.129,1.802 2.797,2.072 0.655,0.273 3.003,2.235 5.134,3.622 2.114,1.367 1.716,1.056 1.33,0.906 -0.368,-0.143 -3.484,-0.795 -4.381,-1.085 -0.904,-0.301 0.609,1.235 0.609,1.228 0,0 1.057,1.033 1.232,0.577 0.192,-0.457 0.601,-0.818 1.948,-0.29 1.338,0.546 2.186,1.11 1.249,1.565 -0.921,0.454 -0.858,0.493 -1.49,0.759 -0.624,0.298 -0.753,0.168 -1.633,0.185 -0.89,0.049 -1.803,0.231 -1.436,0.368 0.37,0.147 1.195,0.714 2.365,1.158 1.169,0.444 1.537,0.606 2.123,0.823 0.583,0.223 1.496,0.119 1.456,0.559 -0.016,0.288 -0.48,0.343 -0.888,0.305 0.546,0.151 1.346,0.454 1.777,0.945 0.754,0.801 1.436,1.508 0.434,1.133 -1.012,-0.381 0.702,1.005 0.697,0.998 0,0 0.543,1.256 -0.97,0.71 -1.498,-0.542 -2.763,-0.094 -1.05,0.539 1.715,0.623 2.861,1.312 2.468,1.33 -0.392,0 -2.556,0.08 -2.556,0.087 0,-0.007 -0.16,0.41 2.284,2.002 2.404,1.571 2.682,2.765 3.309,2.964 0.615,0.185 1.097,0.627 1.939,0.963 0.88,0.329 1.274,0.962 1.274,0.962 0,0 -0.09,0.571 -2.037,-0.024" /></g><g
       style="fill:#ffffff;fill-opacity:1"
       transform="matrix(3.3347922,0,0,3.3347922,374.56155,722.64247)"
       id="g888"><path
         id="path890"
         style="fill:#ffffff;fill-opacity:1;fill-rule:nonzero;stroke:none"
         d="M 0,0 C -0.912,-0.728 -0.912,-0.448 -1.762,-0.801 -2.62,-1.13 -2.996,-1.28 -3.461,-1.777 c -0.455,-0.487 -1.145,-0.844 -1.762,-1.106 -0.6,-0.238 -0.343,0.385 -0.992,0.552 -0.649,0.193 -3.038,-1.994 -2.626,-2.274 0.405,-0.273 1.272,0.606 2.353,1.064 1.074,0.452 -0.05,-0.462 -0.28,-0.557 -0.224,-0.104 -1.562,-1.476 -1.562,-1.476 0.649,0.129 1.298,0.248 1.962,0.378 -0.27,-0.378 -0.553,-0.77 -0.823,-1.148 0,0 1.536,0.707 1.921,0.58 0.393,-0.139 1.577,-0.01 2.297,0.295 0.706,0.294 1.499,0.615 1.491,0.92 -0.007,0.291 1.666,1.49 2.972,2.17 1.29,0.675 2.139,2.403 2.139,2.397 C 3.132,0.907 0.895,0.738 0,0" /></g><g
       style="fill:#ffffff;fill-opacity:1"
       transform="matrix(3.3347922,0,0,3.3347922,128.7737,661.98259)"
       id="g892"><path
         id="path894"
         style="fill:#ffffff;fill-opacity:1;fill-rule:nonzero;stroke:none"
         d="m 0,0 c 0,0 0.985,0.521 1.354,0.546 0.368,0.028 1.081,0.553 1.081,0.553 0,0 0.039,1.295 -0.393,1.137 C 1.61,2.058 0.712,1.466 0.712,1.466 0.473,0.966 0.24,0.49 0,0" /></g><g
       style="fill:#ffffff;fill-opacity:1"
       transform="matrix(3.3347922,0,0,3.3347922,145.17587,415.86594)"
       id="g896"><path
         id="path898"
         style="fill:#ffffff;fill-opacity:1;fill-rule:nonzero;stroke:none"
         d="m 0,0 c 0,0 -1.833,0.821 -4.188,1.378 -2.358,0.56 -2.358,0.105 -2.998,0.396 -0.609,0.268 -0.56,0.367 -1.466,0.031 -0.896,-0.339 -1.651,-1.18 -1.906,-1.626 -0.256,-0.455 -0.096,-0.722 -0.096,-0.722 0.209,0.064 1.611,1.306 2.06,1.364 0.448,0.043 0.4,-0.588 0.967,-0.42 0.57,0.175 1.411,0.243 1.788,-0.027 0.391,-0.276 1.055,0.381 1.055,0.381 0,0 0.642,-0.588 0.497,-0.875 -0.169,-0.269 0.802,-0.07 0.802,-0.07 0,0 0.168,-0.588 -0.049,-0.706 C -3.725,-1.022 -1.032,-0.823 0,0" /></g><g
       style="fill:#ffffff;fill-opacity:1"
       transform="matrix(3.3347922,0,0,3.3347922,358.4575,331.72413)"
       id="g900"><path
         id="path902"
         style="fill:#ffffff;fill-opacity:1;fill-rule:nonzero;stroke:none"
         d="M 0,0 C -0.844,0.899 0.223,1.771 -1.131,1.634 -2.492,1.49 -1.979,0.919 -4.012,1.609 -6.049,2.292 -6.985,2.876 -7.529,3.083 -8.06,3.299 -9.884,4.311 -10.679,4.28 -11.447,4.244 -11.784,4.221 -12.6,4.108 -13.419,3.999 -14.05,3.66 -14.716,3.85 c -0.658,0.188 -2.05,0.927 -3.138,-0.463 -0.17,-0.223 -0.289,-0.392 -0.378,-0.522 -0.081,0.397 -0.217,1.004 -0.386,1.415 -0.248,0.622 -0.327,0.605 -1.818,0.935 -1.488,0.321 -2.371,0.576 -3.115,0.674 -0.739,0.078 -1.299,-0.259 -1.523,-0.674 -0.089,-0.161 -0.191,-0.33 -0.289,-0.509 0.145,0.321 0.241,0.725 0,1.048 -0.472,0.64 -1.025,0.475 -1.52,0.412 -0.521,-0.081 -1.69,-0.126 -1.69,-0.126 0,0 -0.932,0.49 -0.196,0.921 0.738,0.434 0.836,0.57 0.539,1.161 -0.29,0.584 0.16,0.164 -1.059,0.595 -1.193,0.442 -0.839,0.673 -1.287,1.287 -0.448,0.617 -1.322,1.579 -1.322,1.579 -0.2,0.081 -0.394,0.143 -0.593,0.218 -0.072,0.022 -0.162,0.049 -0.241,0.086 0,0 -2.835,1.082 -3.43,0.969 -0.054,-0.024 -0.134,-0.03 -0.215,-0.03 -0.602,-0.043 -1.457,0.133 -2.25,-0.012 -0.898,-0.181 -1.531,-0.31 -1.531,-0.31 0,0 -0.048,0.049 -0.137,0.086 -0.4,0.236 -1.504,0.844 -1.874,0.715 -0.488,-0.145 -1.594,1.883 -2.467,1.634 -0.04,-0.007 -0.065,-0.024 -0.096,-0.024 -0.871,-0.208 -1.843,0.024 -1.843,0.024 0,0 0.874,0.826 0.408,1.074 -0.479,0.256 -0.441,-0.024 -1.328,0.175 -0.908,0.21 -2.252,0.368 -1.276,0.585 0.994,0.233 0.716,0.335 0.716,0.335 -0.905,-0.076 -1.779,-0.178 -2.663,-0.261 0,0 -0.342,-0.826 -0.768,-1.051 -0.415,-0.198 -0.993,0.473 -1.776,0.274 -0.785,-0.178 -0.723,-0.553 -1.435,-0.729 -0.722,-0.161 -0.866,0.48 -0.866,0.48 0,0 -0.329,0.48 -0.704,0.392 -0.391,-0.094 -1.313,-0.321 -1.689,-0.417 -0.376,-0.088 -1.531,-1.218 -0.835,-1.739 0.673,-0.511 1.267,-1.113 0.729,-1.231 -0.535,-0.143 -1.177,-0.124 -1.329,0.576 -0.167,0.698 0.481,1.376 0.016,1.768 -0.241,0.185 -0.352,0.315 -0.393,0.419 -0.024,0.102 0.041,0.176 0.167,0.303 0.275,0.24 0.57,0.544 0.57,0.544 0,0 0.322,0.641 -0.376,0.291 -0.69,-0.35 -0.69,-0.35 -0.905,-0.732 -0.224,-0.391 -0.344,-0.776 -0.872,-0.895 -0.529,-0.13 -0.609,-0.385 -0.587,-0.658 0.025,-0.273 -0.184,-0.497 -0.184,-0.497 0,0 -0.463,0.896 -0.68,0.507 -0.201,-0.401 -1.074,-0.681 -0.905,-1.249 0.184,-0.577 0.426,-1.42 0.426,-1.42 0,0 -1.419,-0.481 -1.156,-1.323 0.256,-0.848 -0.423,-1.604 -0.423,-1.604 0.007,0 0.679,1.838 -0.425,2.174 -1.107,0.335 -1.01,0.584 -1.811,0.304 -0.811,-0.272 -0.641,-1.018 -1.209,-1.176 -0.192,-0.049 -0.305,-0.139 -0.418,-0.21 -0.214,-0.135 -0.448,-0.199 -1.279,0.2 -1.138,0.535 -1.178,0.452 -1.307,0.899 -0.185,0.096 -0.697,0.367 -0.889,0.302 -0.242,-0.07 -0.306,0.104 -0.762,-0.033 -0.425,-0.118 -1.13,-0.1 -1.208,-0.254 0.239,-0.578 0.631,-1.65 1.522,-1.65 1.217,0 1.12,-0.079 1.56,-0.458 0.448,-0.397 0.659,-0.397 1.219,-0.237 0.568,0.157 1.481,0.007 1.626,-0.466 0.153,-0.482 1.377,-0.546 0.954,0.133 -0.225,0.372 -0.418,0.403 -0.506,0.421 -0.024,0.024 -0.031,0.039 -0.055,0.069 0.024,0.043 0.062,0.08 0.143,0.2 0.353,0.496 0.346,0.725 0.57,0.892 0.224,0.176 0.864,0.64 1.216,0.224 0.336,-0.426 0.506,-0.962 0.586,-1.236 0.08,-0.262 0.673,-0.385 0.896,-0.713 0.202,-0.357 1.073,-3.579 1.138,-3.797 0.071,-0.217 0.408,-1.305 -0.217,-1.704 -0.608,-0.396 -0.889,-0.409 -0.648,-1.011 0.24,-0.599 0.439,-0.36 0.24,-0.599 -0.032,-0.018 -0.065,-0.055 -0.08,-0.081 -0.16,-0.279 -0.263,-0.786 -0.505,-0.832 -0.263,-0.073 -0.929,-0.118 -0.448,-0.963 0.48,-0.847 0.111,-1.138 0.007,-1.336 -0.118,-0.217 -0.288,-0.393 0.018,-1.225 0.303,-0.844 0.544,-1.852 1.216,-1.421 0.681,0.433 0.352,-0.591 0.352,-0.97 0,-0.167 -0.352,-0.268 -0.303,-0.426 -0.152,-0.284 -0.24,-0.872 0.231,-2.439 0.105,-0.347 -0.295,-1.366 0.714,-1.4 1.008,-0.081 1.603,-0.37 2.532,-1.456 0.904,-1.088 1.827,-2.128 2.411,-3.384 0.56,-1.278 1.978,-2.17 2.548,-2.803 0.55,-0.62 1.017,-1.266 1.017,-1.266 0,0 0.512,-1.074 1.882,-1.733 1.393,-0.686 2.29,-1.136 3.069,-1.386 0.765,-0.277 1.969,0.115 2.627,-0.543 0.664,-0.651 1.544,-1.56 1.945,-1.613 0.081,-0.028 0.177,-0.062 0.264,-0.111 0.329,-0.206 0.633,-0.593 0.674,-0.357 0.016,0.311 2.604,-5.746 3.324,-7.835 0.681,-2.014 3.268,-8.371 3.276,-8.406 0,0 1.811,-3.3 1.146,-2.961 -0.649,0.35 0.649,-1.074 1.017,-1.732 0.353,-0.657 0.45,-0.554 0.931,-1.915 0.472,-1.386 1.329,-3.443 1.567,-4.149 0.227,-0.683 1.252,-4.099 1.252,-4.099 0,0 -0.937,-0.065 0.08,-1.196 1.01,-1.144 2.362,-1.611 2.626,-2.579 0.264,-0.984 -0.271,-2.082 0.647,-2.898 0.925,-0.836 1.036,-2.221 1.502,-2.11 0.448,0.122 0.191,-0.742 0.801,-1.929 0.614,-1.173 1.041,-1.585 1.2,-1.203 0.144,0.409 -0.456,1.315 -0.832,2.205 -0.378,0.875 -0.681,1.77 -0.273,1.606 0.416,-0.165 1.09,-1.309 1.202,-1.637 0.119,-0.32 0.584,-1.256 1.058,-2.223 0.462,-0.934 0.79,-2.113 0.79,-2.113 -0.046,-0.33 -0.086,-0.68 -0.143,-1.025 0,0 -0.792,0.233 -0.592,-0.352 0.2,-0.576 0.376,-1.907 0.376,-1.907 0,0 1.121,0.249 1.548,0.281 0.415,0.031 0.95,0.367 1.025,0.122 0.095,-0.248 0.07,-1.62 -0.258,-1.714 -0.318,-0.097 -0.296,-1.667 -0.296,-1.667 0,0 1.315,-1.525 1.787,-1.836 0.458,-0.311 1.795,-1.257 1.945,-1.679 v -0.027 c 0.065,-0.049 0.233,-0.213 0.6,-0.688 1.036,-1.317 1.717,-1.628 1.717,-1.628 0,0 0.262,0.274 0.726,-0.216 0.448,-0.479 1.266,-0.752 1.266,-0.752 0,0 0.225,-0.455 0.484,-0.561 0.255,-0.08 0.934,-0.2 0.934,-0.2 0,0 1.724,-1.02 1.98,-0.932 0.263,0.089 1.235,0.436 1.867,0.306 0.625,-0.136 1.634,-0.136 2.027,0 0.325,0.113 1.505,0.443 1.905,0.56 0.087,0.017 0.146,0.032 0.146,0.032 0,0 0.512,0.427 0.704,0.483 0.202,0.056 0.69,0.303 1.05,0.335 0.361,0.026 1.08,0.235 1.08,0.235 0.367,0.308 0.729,0.606 1.105,0.903 -0.376,0 -3.635,-1.361 -6.23,0.721 -2.612,2.117 -1.395,1.554 -2.957,2.467 -1.545,0.927 -2.556,1.506 -1.755,1.915 0.826,0.391 0.889,-0.015 0.57,1.36 -0.336,1.361 -0.602,1.719 -0.123,2.013 0.484,0.294 0.883,-0.455 0.276,1.337 -0.634,1.784 -1.146,1.589 -1.908,1.41 -0.729,-0.169 -1.482,-0.106 -2.202,0.92 -0.73,1.026 -0.882,2.106 0,2.461 0.895,0.359 0.769,1.339 0.639,1.728 -0.133,0.389 -1.071,0.371 -0.488,1.386 0.585,1.032 1.281,1.316 0.368,1.633 -0.92,0.347 -2.13,0.029 -2.411,0.634 -0.287,0.602 -2.546,1.66 -0.895,1.884 1.672,0.223 2.627,-0.585 2.865,0.192 0.242,0.761 0.546,0.9 -0.231,1.658 -0.792,0.76 -2.363,1.866 -1.681,1.984 0.703,0.11 4.34,0.098 4.918,1.415 0.568,1.32 0.513,1.939 0.184,2.827 -0.329,0.877 -0.682,0.616 -1.586,1.431 -0.898,0.826 0.856,1.187 -0.489,1.578 -1.346,0.378 -2.338,0.255 -2.619,0.845 -0.097,0.195 -0.081,0.294 0.04,0.331 0.248,0.066 0.889,-0.069 1.892,-0.125 1.518,-0.051 2.025,-0.984 3.163,-0.411 1.19,0.578 1.954,0.564 2.227,1.342 0,0.012 0,0.044 0.015,0.061 0.216,0.827 -0.129,3.028 -0.353,4.03 -0.224,1.025 0.018,2.291 0.018,2.291 0,0 0.75,-0.311 0.678,-1.21 -0.062,-0.896 0.361,-0.12 0.471,1.297 0.123,1.414 -0.197,1.828 0.604,2.684 0.815,0.85 0.897,1.082 -0.137,2.117 -1.042,1.015 -2.578,1.947 -2.01,2.78 0.56,0.825 1.433,2.393 1.892,2.922 0.464,0.532 2.032,2.275 3.17,2.187 1.139,-0.091 3.629,-0.05 3.645,0.178 0.017,0.214 -1.088,1.014 0.033,1.072 1.113,0.049 1.017,0.534 1.017,0.534 -0.097,0.651 -0.185,1.303 -0.289,1.932 0,0 0.51,1.242 0.289,1.801 -0.202,0.554 -0.345,1.131 -0.625,1.908 -0.313,0.77 0.456,0.666 0.137,1.709 -0.314,1.064 -1.852,5.238 -2.443,6.727 -0.593,1.513 0.632,0.691 1.039,0.369 0.401,-0.337 -0.175,0.194 0.13,1.281 0.295,1.082 -0.072,1.33 0.094,1.834 0.177,0.497 0.697,0.833 1.514,1.613 0.827,0.767 1.508,1.673 0.859,3.313 C 1.361,-1.705 0.849,-0.907 0,0" /></g><g
       style="fill:#ffffff;fill-opacity:1"
       transform="matrix(3.3347922,0,0,3.3347922,302.16655,66.29902)"
       id="g904"><path
         id="path906"
         style="fill:#ffffff;fill-opacity:1;fill-rule:nonzero;stroke:none"
         d="M 0,0 C -0.103,0.078 0.065,-0.198 0,0" /></g><g
       style="fill:#ffffff;fill-opacity:1"
       transform="matrix(3.3347922,0,0,3.3347922,753.70542,296.02517)"
       id="g908"><path
         id="path910"
         style="fill:#ffffff;fill-opacity:1;fill-rule:nonzero;stroke:none"
         d="m 0,0 c -1.088,1.366 -0.945,0.608 -0.945,0.608 0,0 -0.344,-1.385 -0.367,-1.945 C -1.345,-1.904 -1.601,-1.904 -2.203,-2.673 -2.771,-3.434 -3.156,-3.724 -3.636,-4.5 -4.133,-5.261 -5.478,-5.116 -5.872,-5.701 -6.271,-6.289 -7.57,-6.799 -8.075,-7.479 -8.57,-8.167 -8.404,-8.353 -8.499,-9.7 c -0.089,-1.363 0.16,-1.448 0.641,-2.612 0.465,-1.158 -0.513,-0.678 -1.249,-1.983 -0.73,-1.309 -0.889,-1.025 -1.449,-2.229 -0.553,-1.21 0.183,-1.306 0.519,-1.68 0.344,-0.395 -0.079,-1.107 -0.344,-2.029 -0.255,-0.912 -0.057,-0.71 0.962,-1.898 1.015,-1.192 1.939,0.064 2.593,0.081 0.642,0.025 1.532,0.969 1.532,0.969 1.522,4.042 3.003,7.979 4.422,11.808 0.031,0.097 0.073,0.184 0.12,0.296 -0.12,1.153 -0.168,1.809 0.722,1.841 0.896,0.018 0.319,0.771 0.319,0.771 0,0 -0.363,0.272 -0.384,1.312 -0.024,1.035 0.881,-0.354 1.152,-0.158 0.281,0.2 0.256,1.336 0.152,2.828 C 1.098,-0.903 1.074,-1.368 0,0" /></g><g
       style="fill:#ffffff;fill-opacity:1"
       transform="matrix(3.3347922,0,0,3.3347922,76.410466,645.25995)"
       id="g912"><path
         id="path914"
         style="fill:#ffffff;fill-opacity:1;fill-rule:nonzero;stroke:none"
         d="M 0,0 C 0.634,0.335 3.11,0.728 2.236,0.322 1.354,-0.094 0.699,-0.672 0.969,-0.689 1.243,-0.714 2.5,-0.056 3.398,0.262 4.303,0.574 4.735,0.977 5.216,1.267 5.681,1.547 7.522,2.103 7.522,2.103 8.116,2.828 8.701,3.548 9.298,4.277 8.701,4.14 8.108,3.989 7.498,3.853 c 0,0 -0.023,0.927 -0.448,0.77 C 6.642,4.462 6.113,3.202 6.071,2.611 6.025,2.016 4.148,2.033 4.148,2.033 4.471,2.267 4.815,2.499 5.135,2.74 4.424,2.715 3.716,2.698 3.005,2.673 3.287,2.933 3.591,3.195 3.894,3.451 3.79,3.363 2.989,2.684 2.709,2.807 c -0.305,0.126 0.159,1.22 0.159,1.22 0,0 -0.92,-0.678 -1.616,-0.79 C 0.755,3.132 0.362,2.964 -0.136,2.761 -0.513,2.18 -0.896,1.613 -1.273,1.019 -1.208,1.064 -1.137,1.113 -1.097,1.137 -0.625,1.41 0.289,1.372 -0.237,0.958 -0.768,0.561 -1.039,0.224 -1.328,0.017 -1.641,-0.192 -0.631,-0.322 0,0" /></g><g
       style="fill:#ffffff;fill-opacity:1"
       transform="matrix(3.3347922,0,0,3.3347922,72.813553,636.12328)"
       id="g916"><path
         id="path918"
         style="fill:#ffffff;fill-opacity:1;fill-rule:nonzero;stroke:none"
         d="m 0,0 c 0,0 -0.787,0.983 -1.091,1.105 -0.184,0.081 -0.665,-0.321 -1.13,-0.64 -0.665,-1.148 -1.321,-2.298 -1.962,-3.447 1.474,1.092 3.362,2.03 3.54,2.104 C -0.435,-0.585 -0.219,-0.305 0,0" /></g><g
       style="fill:#ffffff;fill-opacity:1"
       transform="matrix(3.3347922,0,0,3.3347922,154.30754,510.8895)"
       id="g920"><path
         id="path922"
         style="fill:#ffffff;fill-opacity:1;fill-rule:nonzero;stroke:none"
         d="M 0,0 C 0.072,0.009 0.121,0.049 0.121,0.049 0.121,0.049 0.083,0.032 0,0" /></g><g
       style="fill:#ffffff;fill-opacity:1"
       transform="matrix(3.3347922,0,0,3.3347922,840.76983,469.42937)"
       id="g924"><path
         id="path926"
         style="fill:#ffffff;fill-opacity:1;fill-rule:nonzero;stroke:none"
         d="M 0,0 C -0.267,-0.151 -0.634,-0.287 -1.18,-0.304 -0.714,-0.896 -0.267,-1.491 0.206,-2.076 0.135,-1.378 0.081,-0.69 0,0" /></g><g
       style="fill:#ffffff;fill-opacity:1"
       transform="matrix(3.3347922,0,0,3.3347922,111.8653,370.31868)"
       id="g928"><path
         id="path930"
         style="fill:#ffffff;fill-opacity:1;fill-rule:nonzero;stroke:none"
         d="M 0,0 C -0.208,0.164 -0.618,0.769 -0.345,0.793 -0.096,0.818 -0.056,0.818 0.329,0.544 0.72,0.259 0.864,0.14 1.29,-0.021 1.723,-0.176 2.171,-0.239 2.041,0.152 1.915,0.544 1.778,0.793 1.948,1.504 2.09,2.218 1.737,2.938 1.795,3.281 1.843,3.633 1.818,4.182 1.818,4.182 1.723,4.485 1.513,4.825 1.296,5.087 1.041,5.423 0.8,5.658 0.8,5.658 0.8,5.647 0.304,6.008 -1.074,5.546 -2.458,5.104 -2.597,4.626 -3.125,4.73 -3.188,4.759 -3.259,4.759 -3.324,4.73 -3.726,4.695 -4.12,4.328 -4.061,4.58 c 0.014,0.066 0.047,0.133 0.103,0.251 0.376,0.771 0.322,0.21 0.497,1.132 0.169,0.919 -0.074,0.633 0.193,1.585 0.126,0.455 0.214,0.647 0.239,0.801 0.017,0.161 -0.017,0.322 -0.143,0.752 -0.24,0.851 -0.152,1.088 0.03,1.586 0.194,0.482 0.698,1.498 -0.584,1.116 C -5.024,11.431 -6.994,10.914 -6.721,9.952 -6.45,9.014 -6.45,8.468 -6.859,7.974 -7.266,7.467 -7.395,7.156 -7.234,6.97 -7.081,6.811 -7.098,6.312 -7.747,6.666 -8.396,7.019 -8.7,6.001 -9.718,5.696 c -1.019,-0.298 -0.625,0.633 -1.339,0.424 -0.712,-0.215 -0.527,-0.264 -1.039,0.353 -0.497,0.609 -1.259,0.714 -1.578,1.834 -0.312,1.099 -0.394,2.943 -0.594,3.975 -0.183,1.039 0.225,1.155 0.153,1.572 -0.015,0.112 -0.015,0.238 -0.033,0.38 -0.014,0.379 -0.023,0.851 -0.12,1.268 -0.105,0.56 -0.231,1.018 0.737,1.672 0.971,0.659 0.713,0.21 1.083,1.013 0.367,0.807 -0.754,0.671 0.887,1.112 1.628,0.472 1.428,0.391 2.013,0.585 0.625,0.157 0.816,0.602 1.27,0.352 0.449,-0.249 0.819,-0.583 1.244,-0.038 0.448,0.574 0.192,1.096 0.192,1.096 0,0 -0.729,0.609 1.194,0.72 1.9,0.125 1.587,1.278 2.203,0.634 0.609,-0.641 0.929,-0.987 1.281,-0.497 0.337,0.479 0.144,1.178 0.731,0.634 C -0.849,22.263 0,22.277 -0.024,21.845 -0.081,21.416 0,21.363 0.247,20.691 0.503,19.996 0.72,19.25 1.33,18.61 c 0.618,-0.633 1.177,-1.6 1.514,-0.368 0.367,1.243 0.479,0.623 0.017,2.218 -0.461,1.61 -1.018,2.803 -1.051,2.958 -0.057,0.15 -1.139,1.467 0.198,3.121 1.341,1.651 1.394,2.068 2.165,2.685 0.768,0.625 0.792,0.314 1.153,1.025 0.352,0.728 0.217,1.011 0.528,1.106 0.305,0.098 0.121,0.378 0.388,0.464 0.255,0.081 0.583,0.473 0.583,0.473 -0.049,0.217 -0.113,0.435 -0.171,0.665 -0.222,-0.081 -0.448,-0.144 -0.67,-0.21 0.258,0.23 0.488,0.466 0.769,0.675 -0.099,0.215 -0.184,0.411 -0.281,0.61 0,0 -0.841,-0.211 -0.642,-0.098 0.194,0.122 0.824,0.489 0.723,0.864 -0.113,0.353 -0.37,1.354 -0.37,1.354 0,0 -0.311,2.244 0.201,0.521 0.513,-1.721 0.377,-2.448 0.889,-1.214 0.506,1.263 0.218,1.743 0.218,1.743 0.199,-0.017 0.375,-0.032 0.582,-0.039 -0.007,0 0.938,1.625 0.819,2.282 -0.105,0.671 -0.248,0.507 0.833,1.043 1.073,0.535 1.506,1.155 1.93,1.304 0.335,0.113 0.841,0.28 1.072,0.361 -0.166,-0.017 -0.43,0.102 -0.127,1.257 0.409,1.644 0.73,2.125 1.459,2.554 0.719,0.435 0.799,1.138 1.473,1.366 0.199,0.081 0.417,0.157 0.607,0.213 0.41,0.135 0.739,0.274 0.683,0.514 -0.048,0.183 0.04,0.385 0.224,0.578 0.136,0.15 0.336,0.311 0.584,0.454 0.521,0.312 0.896,0.823 1.289,1.036 0.394,0.2 -1.24,-0.843 -1.649,-1.917 -0.408,-1.057 0.289,-2.201 0.898,-1.149 0.601,1.103 0.48,1.047 1.233,1.316 0.744,0.267 1.283,0.974 1.795,1.162 0.527,0.2 1.57,1.201 1.809,1.299 0.223,0.091 0.745,0.647 1.274,1.42 0.553,0.773 0.16,1.008 -0.425,0.711 -0.576,-0.28 0.065,1.116 -0.167,1.018 -0.241,-0.098 -0.908,-0.858 -0.875,-1.281 0.034,-0.426 -0.543,-0.65 -0.711,-0.776 -0.168,-0.113 -0.665,-0.445 -1.217,-0.526 -0.554,-0.069 -1.452,-0.237 -1.499,0.197 -0.031,0.416 -0.185,1.119 0.152,1.487 0.361,0.395 0.377,0.353 0.63,0.881 0.259,0.54 1.197,1.988 0.028,1.547 -1.171,-0.458 -1.547,-0.154 -2.501,-0.896 -0.953,-0.744 -1.593,-1.683 -2.05,-1.85 -0.25,-0.099 -0.786,-0.946 -1.274,-1.691 -0.295,-0.465 -0.546,-0.864 -0.736,-1.084 -0.058,-0.071 -0.121,-0.117 -0.16,-0.144 -0.369,-0.196 -0.688,0.105 -0.688,0.105 0,0 0.302,0.49 0.848,1.001 0.544,0.514 0.649,1.123 1.256,1.651 0.602,0.546 0.57,0.665 0.938,0.988 0.351,0.318 0.913,0.846 0.913,0.846 0,0 0.529,0.392 0.712,0.665 0.201,0.255 -0.054,0.808 0.41,0.976 0.465,0.186 2.122,0.949 2.834,1.166 0.714,0.213 1.917,0.941 2.285,1.022 0.376,0.073 1.385,0.545 1.691,0.668 0.302,0.112 0.472,0.249 1.144,1.099 0.681,0.868 0.497,1.053 2.211,1.879 1.716,0.833 2.155,1.015 2.188,1.882 0.023,0.89 0.134,1.337 -0.129,1.576 -0.25,0.237 -0.92,-0.452 -1.089,0.283 -0.154,0.762 -0.68,0.273 -1.281,-0.322 -0.618,-0.599 -1.09,-1.256 -1.643,-1.48 -0.553,-0.217 -1.466,0.024 -0.46,0.625 1.004,0.617 1.221,0.848 1.867,1.303 0.66,0.476 0.448,0.465 1.05,0.843 0.602,0.392 0.579,0.497 -0.406,0.368 -0.994,-0.144 -0.689,-0.336 -1.585,-0.179 -0.907,0.179 -1.78,0.172 -1.701,0.812 0.065,0.658 0.327,0 0.481,1.249 0.154,1.218 -1.482,4.924 -1.482,4.956 0,0 -0.712,-1.813 -1.704,-2.855 -0.971,-1.043 -1.708,-1.618 -1.867,-2.101 -0.153,-0.479 -0.472,-0.889 -0.73,-0.224 -0.266,0.655 -0.497,0.564 -0.753,0.522 -0.258,-0.018 -1.868,-0.612 -0.208,1.119 1.667,1.74 0.825,1.051 0.706,1.627 -0.113,0.61 -0.611,0.537 -1.156,0.32 -0.534,-0.214 -0.793,0.115 -0.969,0.693 -0.167,0.573 -0.824,0.672 -1.754,0.15 -0.921,-0.514 -1.481,-1.169 -1.939,-1.064 -0.471,0.094 -1.962,0.3 -1.904,-1.186 0.055,-1.498 -0.595,-1.669 -0.466,-2.262 0.118,-0.584 0.29,-1.073 -0.296,-1.287 -0.562,-0.234 -2.011,-1.763 -1.017,-2.422 1.001,-0.647 1.066,-0.689 0.984,-1.466 -0.064,-0.766 -0.393,-2.803 -3.94,-5.014 0,0 -0.113,-1.809 0.112,-2.5 0.224,-0.695 0.128,-0.79 -0.384,-1.36 C 6.04,53.961 6.264,53.52 5.664,53.313 5.07,53.106 4.952,52.687 4.663,53.415 4.35,54.129 4.182,53.439 4.15,54.321 c -0.058,0.871 -0.53,0.448 0.159,1.473 0.697,1.012 -0.046,0.428 0.383,1.362 0.426,0.945 0.426,1.404 0.161,1.305 -0.279,-0.098 -2.707,-0.756 -2.707,-0.742 0,0 -0.474,0.753 -1.329,0.455 -0.873,-0.298 -1.779,1.054 -2.868,0.697 -1.066,-0.36 -1.923,-0.833 -1.923,-0.833 0,0 0.576,1.312 0.4,2.057 -0.191,0.759 -1.401,0.235 -1.394,0.235 -0.016,-0.049 2.02,6.134 5.135,7.289 0.491,0.161 1.53,1.697 0.401,1.361 -1.13,-0.342 0.69,0.682 1.29,0.97 0.602,0.29 0.345,0.342 1.177,0.654 0.856,0.322 -0.351,-0.567 1.075,0.689 1.442,1.27 1.73,1.453 1.648,1.806 C 5.678,73.435 4.724,72.697 4.133,72.914 3.532,73.12 3.26,73.25 3.26,73.25 c 0,0 0.738,0.28 1.208,0.378 0.473,0.112 0.938,0.217 1.259,0.416 0.345,0.2 0.329,-0.035 0.432,0.672 0.095,0.714 0.008,0.833 0.649,1.088 0.633,0.235 0.69,0.564 1.385,0.539 0.699,-0.024 -0.038,0.199 0.987,0.382 1.033,0.175 -0.05,-0.015 1.266,0.951 1.327,0.988 2.026,1.047 1.769,1.701 -0.257,0.665 -1.594,-0.031 -0.585,1.068 1.017,1.113 1.563,0.941 1.338,1.41 -0.217,0.448 -1.281,0.637 -1.571,0.511 -0.303,-0.112 -0.679,0.199 -1.321,-0.511 C 9.452,81.117 9.57,80.228 9.267,79.801 8.98,79.377 8.563,79.531 8.145,78.754 7.737,77.974 7.354,77.984 6.952,77.512 6.537,77.053 6.92,77.047 6.544,77.053 c -0.377,0 -0.961,0.459 -0.231,0.82 0.737,0.367 1.553,0.695 0.848,1.343 C 6.472,79.863 5.847,80.154 5.389,79.297 4.952,78.425 4.612,77.911 4.5,78.177 4.388,78.425 4.157,80.123 3.909,79.5 3.669,78.856 2.747,78.485 2.259,77.855 1.778,77.214 0.97,76.9 0.64,76.407 0.336,75.902 -0.024,75.325 -0.307,74.933 -0.578,74.524 -0.385,73.922 -0.609,73.845 -0.833,73.757 -1.066,72.92 -1.268,73.757 c -0.182,0.829 -0.407,0.976 -0.967,0.767 -0.563,-0.2 -1.347,-0.48 -1.627,-0.578 -0.286,-0.091 -0.456,-0.161 -1.097,-0.511 -0.642,-0.381 -1.546,-0.906 -1.546,-0.906 0,0 -0.544,1.001 -1.626,0.658 -1.049,-0.354 -1.699,-0.427 -2.06,-0.896 -0.353,-0.5 -0.784,-0.924 -0.784,-1.439 0.016,-0.51 0.073,-1.165 -0.256,-1.045 -0.337,0.118 -0.233,0.44 -0.664,0.905 -0.418,0.441 -0.217,0.581 -1.108,0.312 -0.895,-0.283 -3.498,-1.554 -3.498,-1.554 0,0.014 -0.498,0.238 0.568,0.77 1.072,0.519 1.249,1.834 -0.432,1.344 -1.692,-0.49 -1.948,-1.075 -2.478,-0.708 -0.022,0.019 -0.038,0.036 -0.061,0.036 -7.887,-16.29 -12.362,-34.536 -12.467,-53.826 v -0.838 c 0.481,-0.298 0.481,-0.842 0.73,-1.498 0.336,-0.827 0.457,-1.821 0.922,-2.076 0.464,-0.286 1.038,0.05 1.184,-0.419 0.154,-0.486 0.978,-0.918 1.404,-1.096 0.416,-0.157 -0.036,-0.12 0.34,-0.745 0.388,-0.616 0.708,-0.078 1.413,-0.832 0.721,-0.761 2.58,-1.16 2.908,-2.297 0.329,-1.123 0.416,-1.204 0.231,-1.82 -0.176,-0.619 -0.648,-1.098 -0.016,-1.409 0.635,-0.323 2.469,-1.368 3.011,-1.268 0.555,0.118 1.563,0.217 1.563,0.217 0,0 2.093,-0.696 2.941,-0.888 0.825,-0.176 0.53,-0.273 1.41,-0.218 0.882,0.049 2.131,-0.416 2.259,0.13 0.137,0.534 0.56,1.176 1.113,1.176 0.554,0.017 1.931,-1.176 2.242,-1.312 0.073,-0.033 0.194,-0.081 0.371,-0.137 0.383,-0.126 0.942,-0.297 1.513,-0.385 0.441,-0.069 0.881,-0.088 1.209,0.015 0.962,0.282 0.633,-0.096 1.587,0.178 0.238,0.081 0.376,0.072 0.479,0 0.065,-0.014 0.105,-0.081 0.146,-0.137 0.119,-0.255 0.087,-0.658 0.465,-0.82 0.613,-0.261 1.449,-0.685 1.68,-0.734 0.024,-0.018 0.041,-0.042 0.082,-0.081 C -0.096,-0.182 0.152,-0.145 0,0" /></g><g
       style="fill:#ffffff;fill-opacity:1"
       transform="matrix(3.3347922,0,0,3.3347922,818.00588,542.47065)"
       id="g932"><path
         id="path934"
         style="fill:#ffffff;fill-opacity:1;fill-rule:nonzero;stroke:none"
         d="m 0,0 c 0.153,0 0.305,0.021 0.481,0.032 h 0.04 C 0.352,0.021 0.168,0 0,0 m -15.245,-26.98 c 0,0 -0.038,-0.039 -0.111,-0.084 0.05,0.045 0.111,0.084 0.111,0.084 M -55.2,31.992 c -0.016,0.014 -0.016,0.056 -0.04,0.067 0.024,-0.011 0.024,-0.053 0.053,-0.067 z m -4.182,-7.754 c 0.047,-0.077 0.105,-0.151 0.144,-0.2 0.009,-0.015 0.016,-0.039 0.026,-0.056 -0.041,0.08 -0.105,0.143 -0.17,0.256 M 6.761,-21.315 C 3.598,7.142 -9.076,32.72 -28.028,52.153 c -0.437,-0.239 -0.824,-0.897 -0.824,-0.897 -0.708,0.147 -1.419,0.263 -2.125,0.392 -0.169,-0.213 -0.335,-0.44 -0.513,-0.664 -0.544,-0.015 -1.081,-0.046 -1.616,-0.07 0,0 0.535,0.422 0.566,1.112 0.034,0.682 -1.087,0.361 -1.368,0.259 -0.272,-0.104 -0.994,-0.538 -0.994,-0.538 0,0 -0.944,-0.099 -1.49,-0.424 -0.535,-0.329 -1.384,-1.427 -1.384,-1.427 -0.091,-0.326 -0.184,-0.648 -0.273,-0.995 0,0 -1.9,-0.167 -2.428,0.305 -0.529,0.448 -1.176,1.242 0.169,1.211 1.337,-0.039 -0.338,1.347 -1.498,1.378 -1.154,0.032 -1.436,0.038 -1.099,-1.308 0.33,-1.337 1.54,-1.918 1.612,-2.587 0.064,-0.664 -0.458,-0.199 -0.458,-0.199 0,0 -0.543,0.658 -1.217,0.69 -0.689,0.031 -2.402,-0.921 -2.628,-1.467 -0.248,-0.535 1.2,-1.448 0.752,-1.641 -0.465,-0.21 -2.114,0.063 -2.953,0.742 -0.852,0.682 -2.101,-0.256 -0.465,-1.064 1.625,-0.809 1.143,-1.753 0.4,-1.082 -0.737,0.659 -1.369,1.114 -1.763,1.139 -0.375,0.017 -1.169,0.153 -1.169,0.153 0,0 0.248,0.406 -0.416,1.183 -0.675,0.794 -0.361,1.435 -0.361,1.435 0,0 -1.09,0.266 -1.939,0.938 -0.859,0.678 0.256,0.311 0.649,0.297 0.377,0 2.235,-0.938 3.886,-1.113 1.649,-0.154 3.924,0.206 3.82,1.197 -0.112,0.987 -1.003,2.022 -2.171,2.166 -1.17,0.161 -1.849,0.175 -2.732,1.088 -0.875,0.913 -2.361,1.187 -3.723,1.218 -1.372,0.043 -1.691,0.273 -2.124,0.627 -0.425,0.335 -2.203,-0.27 -2.203,-0.27 0,0 -0.898,1.012 -0.504,1.004 l 0.383,-0.006 c 0,0 -0.503,0.111 -0.929,0.479 -0.44,0.336 -1.545,0.588 -1.545,0.588 -0.049,-0.179 -0.088,-0.354 -0.128,-0.546 -0.089,0.399 -0.178,0.826 -0.248,1.235 -0.297,-0.216 -0.604,-0.441 -0.906,-0.654 -0.249,-0.333 -0.506,-0.637 -0.762,-0.977 -0.009,0.378 -0.031,0.756 -0.031,1.116 -0.327,-0.328 -0.649,-0.64 -0.962,-0.975 0.071,0.489 0.144,0.969 0.217,1.438 0,0 -0.529,0.241 -1.371,-0.063 -0.855,-0.326 -1.169,-0.858 -1.128,-1.187 0.038,-0.329 -0.593,0.025 -0.898,0.035 -0.295,0 -1.161,-0.178 -1.161,-0.178 0,0 -0.055,-0.224 -0.856,-0.2 -0.788,0.025 -1.347,0.602 -1.283,0.032 0.065,-0.546 -0.906,-0.714 -1.195,-0.816 -0.289,-0.104 -0.344,-1.298 -0.344,-1.298 0,0 -1.449,-0.265 -1.777,-0.042 -0.337,0.235 -0.657,-0.287 -0.666,-1.04 -0.015,-0.744 -0.6,-0.825 -0.889,-0.913 -0.278,-0.104 -1.08,-1.025 -1.08,-1.025 -0.089,-0.392 -0.176,-0.77 -0.263,-1.161 0,0 -0.177,-1.138 -0.571,-1.233 -0.383,-0.08 -1.066,-1.203 -1.586,-1.172 -0.505,0.011 -0.671,-1.225 -1.065,-1.193 -0.418,0.01 -0.618,0.031 -0.92,0.038 -0.306,0.007 -1.836,0.098 -1.836,0.098 0,0 -0.065,-1.329 -0.353,-1.529 -0.289,-0.192 -0.49,-0.175 -1.178,-0.44 -0.696,-0.281 -1.216,-0.249 -1.184,-0.554 0.04,-0.312 0.512,-0.926 0.512,-0.926 0.659,-0.088 1.305,-0.173 1.971,-0.235 -0.817,-0.018 -1.642,-0.039 -2.461,-0.077 0.123,-0.571 0.267,-1.141 0.361,-1.732 0.537,0.205 1.066,0.408 1.596,0.615 -0.4,-0.567 -0.771,-1.12 -1.171,-1.666 0.312,-0.486 0.625,-0.976 0.962,-1.466 0,0 -0.024,-0.808 1.898,-0.62 1.938,0.186 2.155,0.987 2.564,1.061 0.384,0.081 0.93,1.789 1.112,0.963 0.169,-0.746 0.185,-0.826 0.896,-0.865 0.098,-0.011 0.2,-0.017 0.316,-0.017 1.006,-0.067 -1.283,-0.546 -0.098,-1.131 1.175,-0.564 0.873,-0.553 1.514,-2.001 0.648,-1.442 0.36,-1.617 0.418,-2.037 0.031,-0.399 0.481,-1.015 1.106,-1.063 0.615,-0.032 0.895,0.143 0.951,0.542 0.074,0.401 0.875,0.353 1.578,0.322 0.713,-0.039 1.394,0.122 1.163,1.441 -0.227,1.33 -0.057,2.533 -0.057,2.533 0,0 2.611,0.774 2.179,1.929 -0.424,1.155 -2.076,0.826 -2.603,3.027 -0.554,2.205 1.432,2.324 2.522,3.104 1.09,0.788 1.811,1.494 1.811,1.494 0,0 -1.128,0.378 -0.586,0.781 0.546,0.392 0.586,0.927 1.077,0.91 0.494,-0.021 1.448,0.255 1.744,0.248 0.065,-0.007 0.256,-0.021 0.473,-0.053 0.704,-0.073 1.819,-0.283 1.57,-0.682 -0.329,-0.522 -0.08,-0.963 -0.394,-0.938 -0.288,0.007 -2.409,-1.925 -2.418,-1.925 0,0 -1.513,-0.553 -1.074,-1.833 0.442,-1.263 0.889,-2.737 0.889,-2.737 0,0 0.058,-0.42 0.658,-0.553 0.601,-0.136 1.065,-0.77 1.545,-0.805 0.505,-0.02 1.491,-0.062 1.788,-0.087 0.303,-0.018 1.263,0.154 1.552,0.147 0.288,-0.025 0.698,-0.165 0.971,-0.06 0.289,0.095 0.712,0.704 0.712,0.704 0.112,-0.011 0.242,-0.011 0.376,-0.031 0.242,-0.004 0.473,-0.011 0.707,-0.021 0.359,-0.112 0.726,-0.249 1.098,-0.368 -0.372,-0.217 -0.724,-0.459 -1.091,-0.683 -0.177,-0.118 -0.36,-0.255 -0.537,-0.395 -1.224,0.035 -2.413,0.066 -3.62,0.081 0,0 -2.523,-1.11 -0.85,-2.103 0.306,-0.186 0.544,-0.371 0.745,-0.571 0.904,-0.839 0.817,-1.665 0.186,-1.722 -0.788,-0.055 -1.045,0.554 -1.045,0.554 0,0 -1.047,1.595 -2.288,1.136 -1.234,-0.43 -1.131,-0.542 -0.33,-1.602 0.802,-1.05 0.081,-0.697 0.417,-1.131 0.353,-0.412 -0.312,-0.791 0.225,-1.214 0.247,-0.185 -0.096,-0.356 -0.465,-0.497 -0.432,-0.192 -0.929,-0.367 -0.418,-0.556 0.923,-0.35 -2.065,-0.295 -2.065,-0.295 -0.289,0.288 -0.575,0.571 -0.864,0.851 0,0 -1.477,-0.311 -2.252,-0.563 -0.769,-0.256 -2.34,-0.661 -2.34,-0.661 -0.127,0.038 -0.255,0.062 -0.377,0.118 -0.257,0.081 -0.52,0.168 -0.784,0.249 0.016,0 -1.104,0.857 -1.369,0.577 -0.274,-0.283 -1.076,-0.433 -1.483,-0.402 -0.416,0.014 -1.041,0.259 -1.384,0.571 -0.33,0.325 -1.123,-0.025 -1.003,0.962 0.103,1.001 0.233,0.777 1.003,1.231 0.766,0.465 0.968,0.438 0.631,0.872 -0.336,0.416 -1.216,-0.039 -0.97,0.658 0.227,0.682 0.769,1.361 0.256,1.379 -0.502,0.049 -1.007,-0.025 -1.377,-0.409 -0.376,-0.386 -0.754,-0.659 -0.754,-0.659 0,0 -1.232,-0.021 -1.209,-0.441 0.059,-0.391 0,-0.994 0.145,-1.4 0.137,-0.416 1.282,-1.672 1.282,-1.672 0,0 -0.185,-1.274 -0.601,-1.261 -0.4,0.032 0.153,-0.087 -1.721,-0.587 -0.088,-0.021 -0.186,-0.045 -0.29,-0.07 -2.243,-0.553 -2.426,0.346 -3.051,-0.889 -0.633,-1.242 0.007,-1.474 -1.554,-1.673 -0.071,-0.01 -0.136,-0.024 -0.194,-0.031 -1.321,-0.192 -0.831,-0.504 -1.137,-0.763 -0.166,-0.158 -0.736,-0.238 -1.147,-0.367 0.099,0.105 0.058,0.23 -0.255,0.409 -1,0.595 -1.585,-0.266 -1,0.595 0.577,0.829 0.92,0.518 1.193,1.235 0.256,0.718 0.561,0.774 -0.087,1.036 -0.65,0.266 -1.396,-0.56 -1.988,-0.087 -0.601,0.479 0.225,0.209 -0.16,1.192 -0.393,0.988 0.063,1.107 -0.778,1.754 -0.849,0.658 -1.225,0.322 -1.225,0.322 0,0 0.617,1.442 -0.866,1.988 -1.489,0.535 -2.098,0.206 -2.098,0.206 0,0 0.072,0.147 1.395,0.658 1.329,0.505 1.312,1.554 1.312,1.554 0,0 -1.537,0.479 -2.177,0.517 -0.649,0.042 -1.162,-0.584 -1.26,-0.363 -0.087,0.231 0.105,0.826 0.642,1.078 0.546,0.248 1.066,0.675 1.066,0.675 -0.873,0.143 -1.762,0.273 -2.66,0.41 0,0 -0.503,-0.879 -1.185,-1.421 -0.69,-0.553 -0.845,-0.921 -0.785,-1.442 0.022,-0.528 1.337,-0.759 1.337,-0.759 0,0 -1.027,-0.753 -0.607,-0.785 0.414,-0.017 1.946,0.025 1.473,-0.104 -0.489,-0.112 -1.185,-0.423 -1.185,-0.423 0.326,-0.036 0.648,-0.05 0.976,-0.06 0,0 -1.329,-0.889 -1.011,-0.91 0.339,-0.024 1.867,0.175 1.867,0.175 0,0 0.697,0.322 0.762,-0.508 0.058,-0.818 0.649,-1.522 0.649,-1.522 0,0 1.251,-0.318 -0.168,-0.871 -1.426,-0.57 -1.345,-0.591 -1.755,-0.542 -0.407,0.014 1.043,-1.05 0.561,-1.218 -0.472,-0.2 -1.721,0.181 -1.793,-0.105 -0.074,-0.29 0.608,-0.784 1.113,-0.809 0.497,-0.042 1.616,-1 2.371,0.112 0,0 -0.416,-1.137 -1.505,-0.983 -1.059,0.133 -2.115,-0.228 -2.203,-1.543 0,0 0.728,0.322 2.13,0.227 1.386,-0.105 1.217,0.126 2.035,0.07 0.825,-0.056 0.888,0.017 1.786,-0.045 0.913,-0.056 1.802,-0.049 2.443,-0.018 0.313,0.018 0.913,0.038 1.314,0.154 -0.121,-0.059 -0.178,-0.147 -0.168,-0.266 0.033,-0.479 -0.016,-1.267 -0.555,-1.218 -0.535,0.032 -0.704,-0.738 -0.704,-0.738 0,0 -1.264,-0.399 -2.066,0.339 -0.801,0.745 -0.907,0.536 -0.649,-0.248 0.273,-0.802 0.615,-1.025 -0.152,-0.973 -0.76,0.06 -1.53,0 -1.53,0 0,0 -1.658,0.413 -2.213,0.353 -0.543,-0.052 -0.487,-1.137 -0.469,-1.529 0.014,-0.392 0.751,0.539 2.016,-0.528 1.267,-1.05 2.196,-1.883 2.325,-2.177 0.126,-0.315 0.391,-1.011 0.424,-1.788 0.049,-0.763 0.49,-2.813 -0.175,-2.771 -0.226,0.017 -0.513,-0.025 -0.786,-0.088 -0.506,-0.098 -0.954,-0.291 -0.954,-0.291 -2.699,0.473 -5.424,0.931 -8.18,1.401 0.011,0 -3.546,-0.344 -2.225,-1.974 0,0 0.04,-0.193 0.112,-0.515 0.081,-0.441 0.168,-1.144 0.208,-2.033 0.049,-1.533 -0.994,-1.973 -1.339,-2.429 -0.32,-0.455 -0.784,-1.41 -0.183,-1.435 0.577,-0.045 0.77,-2.47 0.77,-2.47 0,0 -0.224,-0.269 1.177,-0.35 1.225,-0.07 1.026,-0.269 1.274,-0.15 0.023,0.013 0.072,0.038 0.135,0.08 0.45,0.262 1.609,0.392 1.987,-0.696 0.374,-1.067 0.513,-1.261 1.192,-1.204 0.682,0.066 0.185,1.043 1.34,0.98 1.145,-0.056 1.377,0.217 2.62,0.15 1.249,-0.073 2.033,-0.119 2.033,-0.119 0,0 0.737,1.106 1.289,0.977 0.578,-0.13 0.609,1.683 1.386,1.651 0.777,-0.049 -0.631,1.835 0.546,2.625 1.162,0.787 1.33,1.739 2.219,1.683 0.873,-0.045 1.706,0.28 1.706,0.28 0.192,0.651 0.368,1.316 0.546,1.97 0,0 -0.409,1.354 1.001,1.284 1.392,-0.088 2.859,-1.13 3.795,-1.001 0.946,0.137 1.226,0.704 1.595,1.163 0.08,0.07 0.128,0.15 0.144,0.23 0.127,0.441 -0.007,0.928 1.507,0.522 1.802,-0.49 2.42,-0.529 2.507,-1.684 0.078,-1.137 -0.065,-0.749 1.154,-1.665 1.201,-0.921 2.074,-1.729 3.028,-2.051 0.938,-0.336 1.833,0.087 2.963,-1.669 1.131,-1.729 2.38,-2.268 1.474,-2.393 -0.898,-0.144 0.271,-0.857 -1.369,-0.778 -1.635,0.081 -1.62,-0.104 -2.667,-0.055 -1.026,0.055 -1.411,-0.399 -1.091,-0.785 0.336,-0.391 3.718,-1.756 3.708,-1.756 0.201,0.546 0.409,1.088 0.611,1.638 0,0 1.119,0.045 1.488,0.661 0.366,0.644 0.633,1.197 1.241,1.155 0.602,-0.032 -0.685,1.337 -1.113,1.648 -0.432,0.291 0.409,1.372 1.491,0.112 1.088,-1.27 2.234,-0.399 0.233,1.012 -1.995,1.41 -2.709,1.266 -3.013,1.466 -0.327,0.2 -0.473,0.874 -0.473,0.874 -0.52,0.183 -1.041,0.368 -1.563,0.56 -0.191,0.351 -0.393,0.704 -0.584,1.064 0,0 -0.127,0.473 -1.201,1.204 -1.089,0.717 -1.642,1.232 -1.642,1.232 0,0 -0.649,1.764 0.288,1.701 0.65,-0.038 0.719,0.335 1.009,0.213 0.122,-0.063 0.274,-0.192 0.546,-0.486 0.897,-1.019 1.433,-1.428 1.761,-1.627 0.307,-0.211 0.795,-1.187 1.619,-1.516 0.833,-0.325 1.065,-0.815 1.482,-0.927 0.416,-0.123 1.225,-0.154 1.225,-0.154 0.041,-0.039 0.087,-0.088 0.145,-0.12 0.665,-0.496 1.314,-1.01 1.961,-1.501 0,0 0.042,-1.878 0.258,-2.166 0.215,-0.297 0.727,-1.889 1.319,-1.83 0.114,0.01 0.196,0 0.268,-0.007 0.329,-0.045 0.39,-0.311 0.575,-0.784 0.242,-0.553 0.401,-1.589 0.401,-1.589 0.248,-0.349 0.504,-0.685 0.762,-1.039 0,0 0.728,-0.504 1.119,-0.615 0.401,-0.113 1.596,-0.249 1.596,-0.249 -0.065,0.319 -0.113,0.616 -0.153,0.931 0.153,0.02 0.312,0.045 0.472,0.076 -0.272,0.305 -0.561,0.634 -0.839,0.956 0.431,-0.21 0.88,-0.409 1.304,-0.609 0.184,0.168 0.377,0.354 0.552,0.518 -0.52,0.546 -1.041,1.095 -1.578,1.645 -0.287,0.448 -0.566,0.889 -0.865,1.329 0,0 -0.272,1.12 0.266,0.455 0.527,-0.671 0.617,-0.409 1.081,0.138 0.44,0.527 -0.522,0.398 0.44,0.527 0.874,0.147 1.169,0.508 1.538,0.235 0.025,-0.042 0.065,-0.063 0.112,-0.116 0.36,-0.405 1.267,-0.71 1.523,-0.79 0.04,0.017 0.08,-0.018 0.08,-0.018 0,0 -0.024,0 -0.08,0.018 -0.056,-0.039 -0.112,-0.235 -0.056,-0.949 0.072,-1.2 0.313,-1.774 0.537,-2.239 0.224,-0.459 0.665,-1.299 1.144,-1.323 0.466,-0.018 0.866,-0.13 1.09,-0.591 0.224,-0.47 0.65,-1.306 0.65,-1.299 0.615,-0.087 1.217,-0.168 1.825,-0.255 0,0 0.585,-0.385 0.866,-0.123 0.256,0.259 0.617,0.7 0.617,0.7 0,0 0.729,0.507 1.625,-0.238 0.883,-0.756 0.796,-0.854 1.907,-0.787 1.13,0.049 0.601,1.145 1.266,0.938 0.656,-0.204 1.576,-0.235 2.05,-0.242 0.265,-0.01 0.408,-0.06 0.49,-0.168 0.07,-0.105 0.088,-0.248 0.102,-0.494 0.033,-0.542 0.223,-2.52 0.152,-2.966 -0.054,-0.403 -0.047,-0.82 -0.39,-1.149 -0.033,-0.023 -0.058,-0.053 -0.098,-0.077 -0.448,-0.356 -0.994,-0.514 -0.96,-1.224 0.031,-0.708 0.151,-1.156 0.169,-1.782 0.007,-0.392 0.119,-1.927 0.43,-3.331 0.17,-0.76 0.401,-1.498 0.715,-1.987 0.872,-1.314 0.481,-0.522 1.914,-2.293 1.426,-1.766 0.896,-2.537 1.826,-3.419 0.93,-0.871 1.635,-0.367 2.236,-2.447 0,0 -0.321,-2.656 0.863,-3.521 1.178,-0.855 1.628,-0.524 2.355,-2.154 0.737,-1.621 1.628,-1.785 2.243,-2.475 0.266,-0.272 0.402,-0.475 0.473,-0.657 0.098,-0.266 0.058,-0.504 0.058,-0.945 0,-0.771 -0.161,-1.361 0,-2.46 0.19,-1.106 0.19,-1.53 0.624,-2.051 0.448,-0.505 0.361,-0.93 1.673,-0.487 1.33,0.432 0.273,0.935 1.755,0.935 1.507,0 3.333,0.675 3.333,0.675 0,0 0.079,1.183 1.209,1.183 1.131,0.01 1.209,0.585 2.074,1.018 0.858,0.416 1.459,0.41 1.549,1.001 0.077,0.585 0.512,1.261 0.759,1.261 h 0.08 c 0.208,0 0.338,0 0.945,-0.012 0.705,0 1.29,0 1.707,0.075 0.431,0.09 -0.848,1.266 0.256,1.266 1.113,-0.01 1.448,-0.171 1.529,0.578 0.082,0.742 1.187,1.084 1.187,1.084 0,0 -0.009,0.669 -0.009,0.924 0,0.248 -0.52,1.25 0.248,1.25 0.762,0 0.336,0 1.348,0.839 1.007,0.826 0.913,1.835 0.655,2.254 -0.263,0.419 -0.263,0.335 -0.609,0.678 -0.335,0.343 -0.76,1.099 -1.018,1.099 -0.256,0.005 -1.023,-0.073 -1.448,0.264 -0.435,0.346 -1.034,0.696 -1.297,1.21 -0.057,0.105 -0.122,0.262 -0.155,0.441 -0.16,0.634 -0.214,1.491 -0.214,1.491 0,0 -1.772,-2.261 -2.451,-2.59 -0.674,-0.336 -2.405,-0.067 -2.828,-0.322 -0.072,-0.028 -0.17,-0.028 -0.273,0.018 -0.601,0.216 -1.753,1.459 -2.283,2.397 -0.641,1.112 0.143,1.025 -0.825,1.984 -0.706,0.675 -1.523,1.634 -1.962,2.373 -0.193,0.311 -0.312,0.578 -0.312,0.769 -0.024,0.598 1.489,2.747 2.226,1.435 0.745,-1.322 1.562,-2.887 3.318,-3.502 0,0 0.808,-1.386 2.104,-1.666 1.298,-0.263 2.813,1.255 3.333,0.727 0.513,-0.504 0.473,-2.043 2.091,-2.319 1.625,-0.259 2.899,-0.869 3.742,-0.869 0.304,0 0.592,0.032 0.935,0.067 0.633,0.063 1.464,0.144 3.027,0.077 2.445,-0.095 2.597,0.745 3.109,-0.188 0.513,-0.928 0.266,-1.684 1.763,-1.684 0.223,0 0.386,-0.042 0.513,-0.113 0.688,-0.335 0.433,-1.41 2.291,-1.175" /></g><g
       style="fill:#ffffff;fill-opacity:1"
       transform="matrix(3.3347922,0,0,3.3347922,558.05983,573.12873)"
       id="g936"><path
         id="path938"
         style="fill:#ffffff;fill-opacity:1;fill-rule:nonzero;stroke:none"
         d="M 0,0 C 0.792,-0.046 0.913,0.521 0.873,1.161 0.825,1.802 -0.45,2.226 -0.576,1.75 -0.576,1.75 -0.786,0.049 0,0" /></g><g
       style="fill:#ffffff;fill-opacity:1"
       transform="matrix(3.3347922,0,0,3.3347922,18.605173,397.51491)"
       id="g940"><path
         id="path942"
         style="fill:#ffffff;fill-opacity:1;fill-rule:nonzero;stroke:none"
         d="m 0,0 c -0.737,0.193 -0.856,1.404 -1.281,2.362 -0.407,0.971 -1.236,0.913 -1.61,1.734 -0.152,0.31 -0.288,0.584 -0.425,0.815 0.04,-0.882 0.088,-1.77 0.137,-2.635 0.136,-0.043 0.255,-0.112 0.367,-0.279 0.377,-0.579 0.377,-0.579 0.458,-0.896 0.12,-0.323 0.231,-1.141 0.231,-1.141 0.689,-0.294 1.371,-0.582 2.037,-0.903 0,0 1.16,-1.572 1.232,-0.585 C 1.227,-0.544 0.745,-0.174 0,0" /></g><g
       style="fill:#ffffff;fill-opacity:1"
       transform="matrix(3.3347922,0,0,3.3347922,140.79229,671.14361)"
       id="g944"><path
         id="path946"
         style="fill:#ffffff;fill-opacity:1;fill-rule:nonzero;stroke:none"
         d="m 0,0 c -0.497,-0.322 0.137,-1.708 0.394,-1.61 0.263,0.095 1.026,0.431 1.816,0.746 0.77,0.311 1.554,0.633 2.427,1 0.866,0.358 1.596,0.546 2.221,0.802 0.606,0.255 1.081,0.809 2.387,1.596 1.298,0.783 1.21,1.935 1.21,1.935 0,0 -2.26,-0.84 -2.524,-0.959 C 7.667,3.412 5.4,2.106 2.797,1.025 0.185,-0.049 3.396,2.338 3.405,2.348 c -0.009,0 2.86,1.424 3.133,1.547 0.264,0.112 2.003,1.088 2.003,1.088 1.096,0.416 2.169,0.833 3.269,1.26 -0.011,0 1.167,0.493 0.855,0.717 -0.329,0.224 -0.729,0.907 0.192,1.299 0.905,0.392 1.794,1.008 1.794,1.008 0.105,0.241 0.193,0.485 0.273,0.731 0,0 2.837,1.561 3.1,1.81 0.263,0.223 -1.123,-0.48 -1.578,-0.683 -0.474,-0.193 0.152,1.666 0.681,2.134 0.529,0.462 3.653,1.561 4.517,1.922 0.852,0.36 1.516,0.648 2.172,1.039 0.647,0.396 1.249,2.03 2.008,2.348 0.78,0.329 2.174,1.414 2.933,1.845 0.755,0.447 2.749,1.77 2.749,1.77 0.602,0.375 1.209,0.735 1.827,1.12 0,0 -1.123,0.658 -2.5,0.224 -1.386,-0.448 -1.657,-0.679 -2.732,-1.12 C 27.036,21.956 26.74,21.836 25.395,21.273 24.039,20.716 23.375,20.43 21.83,19.792 20.315,19.139 20.595,19.265 18.233,18.264 15.869,17.263 16.07,17.231 13.73,15.597 11.409,13.977 10.35,13.914 9.341,13.483 8.34,13.05 8.004,12.014 8.004,12.014 8.066,11.681 8.116,11.311 8.188,10.967 8.266,10.701 8.372,10.46 8.483,10.222 c 0,0 -0.729,-0.312 -1.049,-0.073 -0.32,0.241 -1.162,0.017 -1.162,0.017 0,0 -0.682,-0.546 -1.042,-0.696 C 4.872,9.326 3.605,8.805 3.085,8.581 2.547,8.353 1.972,6.744 1.972,6.744 2.074,6.337 2.172,5.925 2.284,5.525 2.284,5.519 3.235,4.934 3.59,5.078 3.934,5.239 4.823,5.599 5.335,5.936 5.855,6.271 7.003,6.873 7.274,6.992 7.537,7.104 8.436,6.873 8.436,6.873 c 0,0 0.006,-0.616 -0.264,-0.714 -0.266,-0.123 -0.768,0.042 -0.768,0.042 0,0 -0.9,-0.385 -1.252,-0.539 C 5.784,5.519 5.367,4.612 4.839,4.388 4.319,4.165 3.781,3.958 3.428,3.804 3.085,3.654 2.812,3.069 2.197,2.817 1.579,2.562 0.283,2.509 -0.384,2.597 -1.058,2.684 -1.386,0.976 -1.386,0.983 -0.808,1.218 -0.24,1.448 0.336,1.683 0.336,1.683 0.506,0.318 0,0" /></g><g
       style="fill:#ffffff;fill-opacity:1"
       transform="matrix(3.3347922,0,0,3.3347922,555.80784,566.86132)"
       id="g948"><path
         id="path950"
         style="fill:#ffffff;fill-opacity:1;fill-rule:nonzero;stroke:none"
         d="m 0,0 c 0.05,-0.749 0.099,-1.508 0.147,-2.261 0.255,-0.031 0.528,-0.031 0.783,-0.049 0.097,0.182 0.195,0.371 0.282,0.56 0.24,0.035 0.473,0.066 0.712,0.098 0,0 0.336,2.17 0.161,2.394 0,0 -0.418,0.441 -0.602,0.682 C 1.315,1.63 0.771,1.375 0.771,1.375 0.587,1.295 0.386,1.207 0.171,1.137 -0.023,1.025 -0.229,0.917 -0.431,0.808 -0.287,0.542 -0.142,0.276 0,0" /></g><g
       style="fill:#ffffff;fill-opacity:1"
       transform="matrix(3.3347922,0,0,3.3347922,62.711462,611.81266)"
       id="g952"><path
         id="path954"
         style="fill:#ffffff;fill-opacity:1;fill-rule:nonzero;stroke:none"
         d="m 0,0 c 0.096,-0.28 0.215,-0.577 0.32,-0.857 0,0 0.616,0.28 2.203,0.777 1.585,0.497 2.899,1.778 3.221,2.212 0.329,0.433 0.392,-0.193 1.794,-0.274 1.41,-0.049 1.041,0.357 2.402,0.833 1.37,0.479 -0.096,0.833 0.145,0.903 0.224,0.08 1.513,0.55 2.074,1.187 0.553,0.633 -2.219,-0.256 -2.219,1.193 0.026,1.439 1.402,3.87 1.402,3.87 0.337,0.13 0.4,0.595 0.4,0.595 -0.592,-0.21 -1.201,-0.434 -1.802,-0.658 0.087,-0.497 0.177,-0.994 0.255,-1.483 0,0 -0.391,0.538 -1.088,0.514 C 8.402,8.78 7.395,7.416 7.675,6.289 7.69,6.247 7.699,6.226 7.706,6.194 7.586,6.52 7.338,6.961 6.993,6.607 6.608,6.215 7.023,7.513 6.811,6.985 6.585,6.464 5.72,6.4 4.975,6.593 4.213,6.79 4.247,6.345 3.172,6.103 2.076,5.858 1.891,5.568 0.841,5.246 -0.21,4.911 -0.423,4.742 -0.723,3.877 -1.01,3.021 0.472,3.045 -0.329,2.786 -1.131,2.548 -1.706,2.051 -1.361,2.051 c 0.367,-0.01 3.965,0.466 3.965,0.466 0,0 -1.025,-0.329 -2.237,-0.69 C -0.835,1.46 -2.196,1.05 -2.091,0.024 -1.962,-1.011 0,0 0,0" /></g><g
       style="fill:#ffffff;fill-opacity:1"
       transform="matrix(3.3347922,0,0,3.3347922,468.40628,634.04403)"
       id="g956"><path
         id="path958"
         style="fill:#ffffff;fill-opacity:1;fill-rule:nonzero;stroke:none"
         d="m 0,0 c 1.034,-0.37 1.018,0 1.987,0.294 0.985,0.298 0.907,0.298 2.306,0.424 1.395,0.129 0.377,2.109 0.681,2.397 0,0 0.683,-0.424 -0.195,0.312 C 3.932,4.158 3.429,4.333 5.399,4.196 7.36,4.049 5.432,5.005 4.926,5.333 4.407,5.669 4.19,5.453 2.876,5.557 1.546,5.655 2.117,4.276 2.117,4.276 c 0,0 -0.484,-0.273 -1.42,0.323 C -0.249,5.183 -0.473,4.749 -0.592,3.58 -0.697,2.401 -0.298,2.817 0.447,2.772 1.204,2.716 0.402,2.257 -0.263,2.152 -0.928,2.047 -1.322,1.407 -1.288,0.899 -1.281,0.392 -1.017,0.357 0,0" /></g><g
       style="fill:#ffffff;fill-opacity:1"
       transform="matrix(3.3347922,0,0,3.3347922,553.91401,767.09358)"
       id="g960"><path
         id="path962"
         style="fill:#ffffff;fill-opacity:1;fill-rule:nonzero;stroke:none"
         d="m 0,0 c 0.905,-0.014 1.22,0.913 2.036,0.913 0.81,-0.017 0.032,-0.944 0.032,-0.927 -2.235,-0.504 -2.314,-0.315 -0.602,-1.529 1.707,-1.218 1.322,-0.024 2.419,-0.55 1.115,-0.525 0.53,-0.013 1.233,1.428 0.699,1.442 0.379,1.116 1.605,1.267 1.24,0.161 1.096,-1.043 1.657,-1.305 0,0 1.242,-0.529 2.411,-0.546 1.202,-0.021 1.433,0.497 0.914,0.521 -0.529,0 -1.475,0.01 -2.508,1.046 -1.025,1.054 -3.821,1.6 -3.821,1.6 0,0 0.816,-0.011 1.21,-0.196 0.39,-0.168 2.018,-0.35 3.068,-0.368 1.041,0 1.249,0.081 2.57,0.606 1.339,0.511 0.585,1.221 0.585,1.221 0,0 -2.282,0 -3.389,0.007 -1.111,0 -2.065,0.024 -3.477,0.024 C 4.536,3.224 4.16,2.765 2.092,2.789 0.024,2.807 -0.271,2.807 -1.312,2.813 -2.346,2.813 -2.331,2.051 -2.202,1.033 -2.065,0.018 -0.897,-0.007 0,0" /></g></g></svg>